<svg xmlns="http://www.w3.org/2000/svg" viewBox="0 0 2034 714" role="img" aria-label="Loops by Lisa header wordmark"><title>Loops by Lisa header wordmark</title><path d="M1937 353L1936 355L1938 357L1939 361L1938 362L1937 367L1935 370L1935 372L1934 373L1934 375L1933 376L1933 378L1932 379L1930 387L1928 390L1928 392L1927 393L1927 395L1926 396L1924 404L1922 407L1922 410L1920 413L1920 415L1919 416L1919 418L1918 419L1918 421L1917 422L1915 430L1913 433L1913 435L1912 436L1912 438L1911 439L1909 447L1907 450L1906 455L1904 458L1904 460L1903 461L1901 469L1899 472L1899 474L1898 475L1896 483L1894 486L1894 488L1893 489L1893 491L1892 492L1892 494L1891 495L1891 497L1889 500L1888 504L1900 504L1901 503L1901 500L1902 499L1903 493L1904 492L1904 490L1906 486L1906 483L1907 482L1907 480L1908 479L1908 477L1909 476L1909 474L1910 473L1910 471L1912 467L1919 460L1920 460L1922 458L1926 456L1928 456L1932 454L1936 454L1937 453L1954 453L1955 454L1958 454L1959 455L1964 456L1974 461L1977 464L1978 464L1989 476L1990 479L1992 481L1994 485L1994 487L1998 494L1998 496L2002 504L2014 504L2013 500L2009 493L2009 491L2003 480L2003 478L1999 471L1999 469L1991 453L1991 451L1988 446L1988 444L1984 437L1984 435L1980 428L1980 426L1976 419L1976 417L1973 412L1973 410L1970 405L1970 403L1966 396L1966 394L1960 382L1960 380L1958 377L1958 375L1954 368L1954 366L1949 356L1949 354L1947 353ZM1975 456L1977 454L1979 457L1980 456L1981 457L1982 460L1981 461ZM1941 369L1942 369L1944 371L1945 373L1944 375L1945 374L1948 379L1948 381L1949 382L1949 384L1948 385L1949 384L1952 389L1952 391L1958 403L1958 405L1960 408L1960 410L1963 415L1963 417L1966 422L1966 424L1969 429L1969 431L1972 436L1972 438L1979 452L1979 454L1978 455L1977 454L1975 454L1976 455L1974 456L1972 454L1967 452L1963 449L1961 449L1955 446L1952 446L1951 445L1946 445L1945 444L1937 444L1936 445L1932 445L1931 446L1925 447L1920 450L1918 450L1917 449L1917 447L1918 446L1918 444L1920 440L1920 437L1921 436L1921 434L1922 433L1922 431L1924 427L1924 424L1925 423L1925 421L1927 417L1927 414L1928 413L1928 411L1930 407L1930 404L1931 403L1931 401L1933 397L1933 394L1935 390L1935 387L1937 383L1937 380L1938 379L1938 377L1940 373L1940 370ZM1721 353L1721 504L1731 504L1732 503L1732 357L1731 356L1732 354L1731 353ZM1600 353L1599 354L1599 504L1699 504L1699 491L1697 492L1694 492L1693 493L1688 493L1687 494L1684 494L1683 495L1678 495L1677 496L1672 496L1671 497L1665 497L1664 498L1657 498L1656 499L1643 499L1642 500L1614 500L1611 498L1610 496L1610 437L1609 436L1609 353ZM1400 353L1400 355L1402 357L1405 363L1407 365L1408 368L1414 376L1418 384L1420 386L1420 387L1422 389L1422 390L1424 392L1424 393L1426 395L1426 396L1442 419L1443 422L1446 425L1446 426L1450 431L1453 437L1453 504L1464 504L1465 503L1465 436L1466 435L1466 433L1472 425L1473 422L1479 414L1480 411L1485 405L1485 404L1491 396L1492 393L1494 391L1494 390L1496 388L1496 387L1498 385L1502 378L1505 375L1505 374L1507 372L1507 371L1509 369L1509 368L1511 366L1511 365L1513 363L1513 362L1515 360L1519 353L1508 353L1506 355L1506 356L1502 361L1498 370L1496 372L1493 379L1491 381L1489 386L1487 388L1486 391L1484 393L1483 396L1478 403L1476 408L1474 410L1473 413L1471 415L1470 418L1468 420L1467 423L1462 430L1446 407L1447 405L1446 406L1444 404L1444 403L1430 383L1429 380L1417 363L1416 360L1414 358L1411 353ZM1281 353L1280 354L1280 504L1352 504L1353 503L1357 503L1358 502L1364 501L1374 496L1383 487L1383 486L1386 483L1387 479L1389 476L1390 470L1391 469L1391 452L1390 451L1388 443L1386 439L1383 436L1383 435L1376 428L1375 428L1370 424L1366 422L1364 422L1361 420L1359 420L1358 419L1360 417L1366 414L1370 410L1371 410L1375 406L1380 397L1380 395L1381 394L1381 378L1380 377L1380 375L1379 374L1378 370L1375 367L1375 366L1368 360L1358 355L1355 355L1354 354L1348 354L1347 353ZM1292 425L1295 422L1343 422L1344 423L1348 423L1349 424L1355 425L1362 429L1366 433L1367 433L1368 435L1372 439L1372 440L1375 444L1375 446L1377 449L1377 452L1378 453L1378 470L1377 471L1376 477L1373 483L1363 493L1362 493L1360 495L1356 496L1355 497L1353 497L1352 498L1349 498L1348 499L1340 499L1339 500L1297 500L1296 499L1294 499L1292 497L1292 495L1291 494L1291 428L1292 427ZM1292 360L1296 357L1297 358L1298 357L1341 357L1342 358L1347 358L1348 359L1350 359L1351 360L1353 360L1357 362L1364 368L1369 378L1369 381L1370 382L1370 388L1369 389L1369 394L1368 395L1367 400L1365 402L1363 406L1359 410L1350 415L1344 416L1343 417L1312 417L1311 418L1309 418L1308 417L1296 417L1292 413L1292 410L1291 409L1291 363L1292 362ZM1805 350L1804 351L1794 352L1786 355L1775 361L1766 369L1760 379L1758 387L1758 396L1760 404L1764 411L1772 419L1782 424L1796 428L1836 435L1845 438L1854 443L1861 451L1864 459L1864 473L1863 477L1859 485L1851 493L1840 499L1825 503L1807 503L1806 502L1794 500L1785 496L1778 491L1770 482L1767 473L1768 465L1760 466L1757 470L1756 477L1759 485L1762 488L1761 490L1762 489L1767 493L1768 496L1769 495L1780 501L1798 506L1824 507L1845 502L1858 495L1868 485L1872 478L1875 468L1875 457L1872 446L1864 435L1865 434L1864 433L1863 434L1858 430L1848 425L1835 421L1800 415L1786 411L1780 408L1778 406L1779 405L1778 406L1774 403L1770 396L1770 391L1769 390L1770 380L1775 370L1785 361L1796 356L1804 355L1805 354L1811 354L1812 353L1827 354L1843 359L1849 363L1859 373L1863 380L1863 382L1865 381L1868 375L1869 370L1867 366L1860 360L1841 352L1830 351L1829 350ZM415 303L418 342L440 380L449 447L460 465L475 472L493 469L511 456L548 393L605 367L617 380L620 426L631 457L645 470L669 470L697 445L724 394L793 364L791 477L772 536L763 593L769 657L781 682L792 690L809 682L816 659L815 465L860 379L899 329L911 326L916 333L914 398L904 422L851 492L848 511L858 520L876 517L894 501L929 422L1004 369L1015 375L1074 371L1096 378L1081 428L1001 478L943 531L924 567L926 582L937 589L966 586L1013 552L1054 506L1098 439L1201 391L1194 379L1184 379L1110 412L1112 378L1102 362L1071 352L1023 353L1089 286L1093 301L1110 301L1128 260L1117 245L1073 269L1026 315L998 353L938 391L939 351L933 328L919 314L894 315L858 352L824 408L818 407L823 410L817 420L819 258L815 250L811 255L806 249L801 258L794 338L732 374L742 322L736 273L713 238L678 222L646 225L615 249L594 299L599 352L559 373L552 373L563 318L559 280L540 246L511 226L479 222L451 235L428 263ZM791 525L792 526L792 542L793 543L793 594L794 595L794 630L793 631L793 656L792 657L792 666L790 668L784 657L784 655L783 654L783 652L781 648L781 645L780 644L780 640L779 639L778 627L777 626L777 593L778 592L778 583L779 582L779 575L780 574L780 568L781 567L781 562L782 561L783 552L784 551L784 548L785 547L785 544L786 543L786 540L787 539L787 535L788 534L788 532L789 531L789 529ZM1062 461L1059 467L1057 469L1056 468L1057 470L1055 472L1053 476L1050 479L1050 480L1047 483L1047 484L1044 487L1044 488L1041 491L1041 492L1038 495L1038 496L1034 500L1034 501L1028 507L1028 508L1023 513L1023 514L1012 525L1012 526L988 550L987 550L981 556L980 556L971 564L970 564L959 572L953 575L951 575L947 577L937 577L934 574L935 573L936 568L938 565L938 563L940 559L942 557L947 547L950 544L947 545L946 547L939 554L938 552L942 547L943 544L947 540L947 539L956 530L957 530L959 528L960 529L957 535L955 537L956 537L965 528L966 528L981 514L982 514L986 510L987 510L994 504L998 502L1005 496L1009 494L1016 488L1017 488L1034 476L1036 477L1035 476L1037 474L1038 474L1043 470L1046 469L1048 467L1050 466L1053 467L1054 466L1053 467L1051 466L1060 460ZM699 399L700 400L699 404L697 407L697 409L692 419L690 421L689 424L687 426L685 430L683 432L682 431L683 433L677 440L677 441L666 452L660 455L654 455L651 452L648 446L647 440L646 439L645 433L644 432L644 427L643 426L643 421L642 420L642 411L641 410L641 397L642 396L643 397L645 397L649 399L652 399L653 400L657 400L658 401L668 401L669 402L678 402L679 401L690 401L691 400L698 400ZM521 399L522 400L522 402L520 405L520 407L515 417L513 419L511 424L509 426L506 432L504 434L503 433L504 434L500 439L500 440L496 444L495 443L496 444L487 453L483 455L478 455L476 454L474 452L471 446L470 439L468 435L467 425L466 424L466 416L465 415L464 397L465 396L469 398L472 398L473 399L476 399L477 400L482 400L483 401L511 401L512 400L520 400ZM660 238L677 238L678 239L684 240L696 247L704 255L703 257L704 256L707 259L707 260L711 265L716 275L716 277L718 280L718 283L719 284L719 287L720 288L720 294L721 295L721 330L720 331L720 340L719 341L719 346L718 347L717 356L716 357L716 360L715 361L715 363L714 364L712 372L708 380L706 382L704 382L703 383L693 384L692 385L660 385L659 384L654 384L653 383L650 383L649 382L644 381L641 379L641 371L642 370L642 363L643 362L644 351L646 347L646 344L647 343L648 336L651 330L651 328L658 314L661 311L661 310L677 294L678 294L686 285L686 282L683 280L680 280L678 278L674 277L673 276L664 276L655 280L644 292L644 293L640 298L633 312L632 317L630 320L629 325L627 328L627 330L625 334L624 341L623 342L622 348L620 352L616 344L616 341L615 340L615 337L614 336L614 331L613 330L613 304L614 303L615 294L616 293L616 291L617 290L619 282L621 279L621 277L627 265L632 259L632 258L643 247L647 245L650 242L654 240L659 239ZM482 238L488 238L489 237L492 237L493 238L498 238L499 239L505 240L509 242L514 246L515 246L518 249L519 249L526 257L526 258L532 266L534 270L534 272L538 280L538 283L540 287L540 292L541 293L541 307L542 308L542 323L541 324L541 336L540 337L540 345L539 346L539 352L538 353L538 357L537 358L537 361L536 362L536 366L535 367L535 369L534 370L532 378L530 381L526 382L525 383L521 383L520 384L514 384L513 385L480 385L479 384L475 384L474 383L468 382L464 379L464 369L465 368L465 358L466 357L466 352L467 351L467 348L469 344L469 341L470 340L471 334L473 331L473 329L481 313L489 305L489 304L491 303L505 289L506 287L507 287L508 285L508 283L506 281L503 281L500 278L496 276L492 276L491 275L490 276L486 276L477 280L467 290L467 291L464 294L453 315L452 320L450 323L450 325L449 326L449 328L447 332L446 340L445 341L445 344L444 345L443 351L442 352L439 347L439 345L437 341L436 333L435 332L435 327L434 326L434 304L435 303L435 298L436 297L436 294L437 293L437 291L438 290L440 282L447 268L449 266L451 262L454 259L454 258L465 247L466 247L469 244L476 240L478 240ZM340 23L315 21L285 37L253 74L224 128L200 122L168 123L132 134L103 151L67 185L43 224L30 264L28 305L44 356L68 385L97 403L122 409L157 406L128 597L67 616L44 629L27 645L20 657L20 674L32 689L45 696L74 700L105 688L128 662L145 614L151 611L212 613L381 658L449 664L497 655L530 640L554 616L568 592L573 557L560 524L543 508L525 499L501 493L478 493L445 507L427 536L425 553L429 570L446 592L459 598L474 598L494 589L503 578L504 562L498 570L496 562L491 562L475 582L467 585L458 582L449 569L448 536L462 517L476 509L501 507L532 520L547 538L552 562L547 588L531 613L510 631L478 646L454 650L403 648L232 602L150 595L180 398L245 358L304 304L343 248L367 189L377 141L376 84L363 45ZM124 616L122 628L121 629L120 635L119 636L118 641L116 644L116 646L109 660L107 662L105 666L102 669L102 670L92 680L78 688L76 688L72 690L68 690L67 691L62 691L61 690L58 690L57 689L52 688L50 686L44 683L39 678L37 674L37 671L36 670L36 668L37 667L37 663L38 662L39 658L44 652L45 653L46 652L45 651L52 644L53 644L60 638L88 624L90 624L91 623L93 623L97 621L100 621L104 619L107 619L108 618L115 617L116 616L120 616L121 615L123 615ZM565 559L566 560L566 566L565 567L564 566L564 560ZM437 546L438 547L438 557L437 558L436 557L436 547ZM216 140L218 142L218 144L216 147L216 149L214 152L214 154L211 160L210 165L208 168L207 174L206 175L206 177L205 178L205 180L204 181L204 183L203 184L203 186L202 187L202 189L197 202L197 205L196 206L196 208L194 212L194 215L191 222L191 225L190 226L190 229L189 230L189 233L188 234L188 237L186 241L186 245L185 246L185 249L183 254L183 258L181 263L181 267L180 268L180 272L179 273L179 277L178 278L178 283L177 284L177 288L176 289L176 294L175 295L175 300L174 301L174 307L173 308L173 312L172 313L172 319L171 320L171 324L170 325L170 329L169 330L169 335L168 336L168 341L167 342L167 346L166 347L166 353L165 354L165 358L164 359L164 365L163 366L163 370L162 371L162 377L161 378L161 383L160 384L160 386L158 388L156 388L152 390L149 390L144 392L138 392L137 393L119 393L118 392L114 392L113 391L110 391L104 388L102 388L89 380L76 368L64 351L59 341L59 339L57 336L57 334L55 330L55 327L53 322L53 318L52 317L52 312L51 311L51 301L50 300L50 295L51 294L51 281L52 280L53 269L54 268L56 257L57 256L58 250L60 247L62 239L73 217L77 212L78 209L84 200L91 192L91 191L101 181L101 180L114 168L134 154L155 144L157 144L161 142L164 142L165 141L168 141L169 140L172 140L173 139L177 139L178 138L185 138L186 137L204 137L205 138L210 138L211 139ZM338 37L343 42L349 53L355 73L357 89L358 90L358 102L359 103L358 132L357 133L357 140L356 141L354 157L348 180L336 212L328 229L313 255L295 280L279 299L253 326L234 343L229 346L219 355L198 369L186 375L185 374L186 363L188 357L194 317L195 316L207 252L216 222L216 219L218 215L218 212L223 198L223 195L226 188L226 185L228 182L234 162L237 156L243 162L247 170L250 183L254 192L258 195L261 191L264 196L267 190L268 176L264 162L256 150L244 139L244 136L249 126L249 124L258 105L269 86L287 62L309 42L325 35L329 35L330 34Z" fill="#111" fill-rule="evenodd" clip-rule="evenodd"/></svg>