<?xml version="1.0" encoding="UTF-8"?>
<svg xmlns="http://www.w3.org/2000/svg"
     viewBox="0 0 1744 1916"
     width="1744"
     height="1916"
     role="img"
     aria-label="Loops by Lisa logo">
  <title>Loops by Lisa logo</title>
  <path d="M 943.0 1547.0 L 938.0 1547.0 L 938.0 1548.0 L 937.0 1549.0 L 937.0 1552.0 L 936.0 1553.0 L 936.0 1556.0 L 935.0 1557.0 L 935.0 1560.0 L 934.0 1561.0 L 934.0 1564.0 L 933.0 1565.0 L 933.0 1568.0 L 932.0 1569.0 L 932.0 1572.0 L 931.0 1573.0 L 931.0 1576.0 L 930.0 1577.0 L 930.0 1580.0 L 929.0 1581.0 L 929.0 1584.0 L 928.0 1585.0 L 928.0 1588.0 L 927.0 1589.0 L 927.0 1592.0 L 926.0 1593.0 L 926.0 1596.0 L 925.0 1597.0 L 925.0 1600.0 L 924.0 1601.0 L 924.0 1604.0 L 923.0 1605.0 L 923.0 1608.0 L 922.0 1609.0 L 921.0 1609.0 L 919.0 1607.0 L 919.0 1606.0 L 918.0 1605.0 L 918.0 1604.0 L 917.0 1603.0 L 917.0 1602.0 L 916.0 1601.0 L 916.0 1600.0 L 915.0 1599.0 L 915.0 1598.0 L 907.0 1583.0 L 907.0 1581.0 L 906.0 1580.0 L 906.0 1577.0 L 907.0 1576.0 L 907.0 1573.0 L 908.0 1572.0 L 908.0 1570.0 L 909.0 1569.0 L 909.0 1567.0 L 910.0 1566.0 L 910.0 1564.0 L 911.0 1563.0 L 911.0 1560.0 L 912.0 1559.0 L 912.0 1557.0 L 913.0 1556.0 L 913.0 1554.0 L 914.0 1553.0 L 915.0 1548.0 L 910.0 1548.0 L 909.0 1549.0 L 909.0 1552.0 L 908.0 1553.0 L 908.0 1556.0 L 907.0 1557.0 L 907.0 1560.0 L 906.0 1561.0 L 906.0 1564.0 L 905.0 1565.0 L 905.0 1568.0 L 903.0 1571.0 L 902.0 1571.0 L 901.0 1570.0 L 901.0 1569.0 L 900.0 1568.0 L 900.0 1567.0 L 899.0 1566.0 L 899.0 1565.0 L 898.0 1564.0 L 898.0 1563.0 L 897.0 1562.0 L 897.0 1561.0 L 896.0 1560.0 L 891.0 1549.0 L 885.0 1549.0 L 885.0 1550.0 L 886.0 1551.0 L 886.0 1552.0 L 887.0 1553.0 L 887.0 1554.0 L 888.0 1555.0 L 888.0 1556.0 L 889.0 1557.0 L 889.0 1558.0 L 890.0 1559.0 L 890.0 1560.0 L 891.0 1561.0 L 891.0 1562.0 L 892.0 1563.0 L 892.0 1564.0 L 900.0 1579.0 L 900.0 1588.0 L 899.0 1589.0 L 899.0 1592.0 L 898.0 1593.0 L 898.0 1596.0 L 897.0 1597.0 L 897.0 1600.0 L 896.0 1601.0 L 896.0 1604.0 L 895.0 1605.0 L 895.0 1608.0 L 893.0 1610.0 L 892.0 1610.0 L 891.0 1609.0 L 891.0 1608.0 L 890.0 1607.0 L 890.0 1606.0 L 889.0 1605.0 L 889.0 1604.0 L 888.0 1603.0 L 888.0 1602.0 L 887.0 1601.0 L 887.0 1600.0 L 886.0 1599.0 L 886.0 1598.0 L 878.0 1583.0 L 878.0 1581.0 L 877.0 1580.0 L 877.0 1579.0 L 876.0 1578.0 L 876.0 1577.0 L 875.0 1576.0 L 875.0 1575.0 L 874.0 1574.0 L 874.0 1573.0 L 873.0 1572.0 L 873.0 1571.0 L 872.0 1570.0 L 872.0 1569.0 L 871.0 1568.0 L 871.0 1567.0 L 870.0 1566.0 L 870.0 1565.0 L 869.0 1564.0 L 869.0 1563.0 L 868.0 1562.0 L 863.0 1551.0 L 862.0 1550.0 L 857.0 1550.0 L 857.0 1552.0 L 858.0 1553.0 L 858.0 1554.0 L 859.0 1555.0 L 859.0 1556.0 L 860.0 1557.0 L 860.0 1558.0 L 861.0 1559.0 L 861.0 1560.0 L 862.0 1561.0 L 862.0 1562.0 L 863.0 1563.0 L 863.0 1564.0 L 864.0 1565.0 L 864.0 1566.0 L 865.0 1567.0 L 865.0 1568.0 L 866.0 1569.0 L 866.0 1570.0 L 867.0 1571.0 L 867.0 1572.0 L 868.0 1573.0 L 868.0 1574.0 L 869.0 1575.0 L 869.0 1576.0 L 870.0 1577.0 L 870.0 1578.0 L 871.0 1579.0 L 871.0 1580.0 L 872.0 1581.0 L 872.0 1582.0 L 873.0 1583.0 L 873.0 1584.0 L 874.0 1585.0 L 874.0 1586.0 L 882.0 1601.0 L 882.0 1603.0 L 890.0 1618.0 L 893.0 1618.0 L 894.0 1617.0 L 894.0 1615.0 L 895.0 1614.0 L 895.0 1611.0 L 896.0 1610.0 L 896.0 1608.0 L 897.0 1607.0 L 897.0 1605.0 L 898.0 1604.0 L 898.0 1602.0 L 899.0 1601.0 L 899.0 1599.0 L 900.0 1598.0 L 900.0 1595.0 L 901.0 1594.0 L 901.0 1592.0 L 903.0 1589.0 L 904.0 1589.0 L 905.0 1590.0 L 905.0 1591.0 L 906.0 1592.0 L 906.0 1593.0 L 907.0 1594.0 L 907.0 1595.0 L 908.0 1596.0 L 908.0 1597.0 L 909.0 1598.0 L 909.0 1599.0 L 910.0 1600.0 L 910.0 1601.0 L 911.0 1602.0 L 911.0 1603.0 L 912.0 1604.0 L 912.0 1605.0 L 913.0 1606.0 L 918.0 1617.0 L 922.0 1617.0 L 922.0 1615.0 L 923.0 1614.0 L 923.0 1612.0 L 924.0 1611.0 L 924.0 1608.0 L 925.0 1607.0 L 925.0 1605.0 L 926.0 1604.0 L 926.0 1602.0 L 927.0 1601.0 L 927.0 1599.0 L 928.0 1598.0 L 928.0 1596.0 L 929.0 1595.0 L 929.0 1592.0 L 930.0 1591.0 L 930.0 1589.0 L 931.0 1588.0 L 931.0 1586.0 L 932.0 1585.0 L 932.0 1583.0 L 933.0 1582.0 L 933.0 1580.0 L 934.0 1579.0 L 934.0 1576.0 L 935.0 1575.0 L 935.0 1573.0 L 936.0 1572.0 L 936.0 1570.0 L 937.0 1569.0 L 937.0 1567.0 L 938.0 1566.0 L 938.0 1564.0 L 939.0 1563.0 L 939.0 1560.0 L 940.0 1559.0 L 940.0 1557.0 L 941.0 1556.0 L 941.0 1554.0 L 942.0 1553.0 L 942.0 1551.0 L 943.0 1550.0 Z
    M 950.0 1545.0 L 950.0 1551.0 L 951.0 1552.0 L 951.0 1560.0 L 952.0 1561.0 L 952.0 1569.0 L 953.0 1570.0 L 953.0 1578.0 L 954.0 1579.0 L 954.0 1587.0 L 955.0 1588.0 L 955.0 1596.0 L 956.0 1597.0 L 956.0 1605.0 L 957.0 1606.0 L 957.0 1613.0 L 958.0 1614.0 L 959.0 1614.0 L 960.0 1613.0 L 962.0 1613.0 L 962.0 1604.0 L 961.0 1603.0 L 961.0 1595.0 L 960.0 1594.0 L 960.0 1586.0 L 959.0 1585.0 L 959.0 1577.0 L 958.0 1576.0 L 958.0 1568.0 L 957.0 1567.0 L 957.0 1559.0 L 956.0 1558.0 L 956.0 1550.0 L 955.0 1549.0 L 955.0 1545.0 Z
    M 741.0 1537.0 L 741.0 1540.0 L 740.0 1541.0 L 740.0 1546.0 L 739.0 1547.0 L 739.0 1552.0 L 738.0 1553.0 L 738.0 1558.0 L 737.0 1559.0 L 737.0 1565.0 L 736.0 1566.0 L 736.0 1571.0 L 735.0 1572.0 L 735.0 1577.0 L 734.0 1578.0 L 734.0 1583.0 L 733.0 1584.0 L 733.0 1590.0 L 732.0 1591.0 L 732.0 1596.0 L 731.0 1597.0 L 731.0 1602.0 L 730.0 1603.0 L 730.0 1605.0 L 734.0 1605.0 L 735.0 1606.0 L 741.0 1606.0 L 742.0 1607.0 L 747.0 1607.0 L 748.0 1608.0 L 753.0 1608.0 L 754.0 1609.0 L 760.0 1609.0 L 761.0 1610.0 L 766.0 1610.0 L 767.0 1611.0 L 772.0 1611.0 L 773.0 1612.0 L 777.0 1612.0 L 777.0 1610.0 L 778.0 1609.0 L 778.0 1607.0 L 752.0 1607.0 L 751.0 1606.0 L 742.0 1606.0 L 741.0 1605.0 L 738.0 1605.0 L 736.0 1603.0 L 736.0 1598.0 L 737.0 1597.0 L 737.0 1592.0 L 738.0 1591.0 L 738.0 1586.0 L 739.0 1585.0 L 739.0 1579.0 L 740.0 1578.0 L 740.0 1573.0 L 742.0 1571.0 L 749.0 1571.0 L 750.0 1572.0 L 753.0 1572.0 L 754.0 1573.0 L 757.0 1573.0 L 758.0 1574.0 L 760.0 1574.0 L 761.0 1575.0 L 763.0 1575.0 L 764.0 1576.0 L 766.0 1576.0 L 767.0 1577.0 L 769.0 1577.0 L 770.0 1578.0 L 772.0 1578.0 L 773.0 1579.0 L 776.0 1579.0 L 776.0 1574.0 L 772.0 1574.0 L 771.0 1573.0 L 766.0 1573.0 L 765.0 1572.0 L 759.0 1572.0 L 758.0 1571.0 L 753.0 1571.0 L 752.0 1570.0 L 747.0 1570.0 L 746.0 1569.0 L 744.0 1569.0 L 742.0 1567.0 L 742.0 1560.0 L 743.0 1559.0 L 743.0 1554.0 L 744.0 1553.0 L 744.0 1548.0 L 745.0 1547.0 L 745.0 1542.0 L 748.0 1539.0 L 750.0 1539.0 L 751.0 1540.0 L 755.0 1540.0 L 756.0 1541.0 L 760.0 1541.0 L 761.0 1542.0 L 764.0 1542.0 L 765.0 1543.0 L 768.0 1543.0 L 769.0 1544.0 L 771.0 1544.0 L 772.0 1545.0 L 774.0 1545.0 L 775.0 1546.0 L 777.0 1546.0 L 778.0 1547.0 L 780.0 1547.0 L 781.0 1548.0 L 783.0 1548.0 L 786.0 1550.0 L 787.0 1550.0 L 787.0 1547.0 L 788.0 1546.0 L 788.0 1544.0 L 783.0 1544.0 L 782.0 1543.0 L 777.0 1543.0 L 776.0 1542.0 L 770.0 1542.0 L 769.0 1541.0 L 764.0 1541.0 L 763.0 1540.0 L 758.0 1540.0 L 757.0 1539.0 L 752.0 1539.0 L 751.0 1538.0 L 745.0 1538.0 L 744.0 1537.0 Z
    M 1017.0 1535.0 L 1016.0 1536.0 L 1011.0 1536.0 L 1010.0 1537.0 L 1005.0 1537.0 L 1004.0 1538.0 L 999.0 1538.0 L 998.0 1539.0 L 993.0 1539.0 L 992.0 1540.0 L 987.0 1540.0 L 986.0 1541.0 L 981.0 1541.0 L 980.0 1542.0 L 975.0 1542.0 L 974.0 1543.0 L 969.0 1543.0 L 968.0 1544.0 L 965.0 1544.0 L 965.0 1546.0 L 966.0 1547.0 L 966.0 1550.0 L 967.0 1549.0 L 968.0 1549.0 L 969.0 1548.0 L 970.0 1548.0 L 975.0 1545.0 L 977.0 1545.0 L 978.0 1544.0 L 979.0 1544.0 L 980.0 1543.0 L 982.0 1543.0 L 983.0 1542.0 L 988.0 1542.0 L 989.0 1543.0 L 989.0 1545.0 L 990.0 1546.0 L 990.0 1551.0 L 991.0 1552.0 L 991.0 1557.0 L 992.0 1558.0 L 992.0 1563.0 L 993.0 1564.0 L 993.0 1569.0 L 994.0 1570.0 L 994.0 1575.0 L 995.0 1576.0 L 995.0 1581.0 L 996.0 1582.0 L 996.0 1587.0 L 997.0 1588.0 L 997.0 1593.0 L 998.0 1594.0 L 998.0 1599.0 L 999.0 1600.0 L 999.0 1605.0 L 1000.0 1606.0 L 1000.0 1608.0 L 1002.0 1608.0 L 1003.0 1607.0 L 1005.0 1607.0 L 1005.0 1604.0 L 1004.0 1603.0 L 1004.0 1598.0 L 1003.0 1597.0 L 1003.0 1592.0 L 1002.0 1591.0 L 1002.0 1586.0 L 1001.0 1585.0 L 1001.0 1580.0 L 1000.0 1579.0 L 1000.0 1574.0 L 999.0 1573.0 L 999.0 1568.0 L 998.0 1567.0 L 998.0 1562.0 L 997.0 1561.0 L 997.0 1556.0 L 996.0 1555.0 L 996.0 1550.0 L 995.0 1549.0 L 995.0 1541.0 L 996.0 1540.0 L 1015.0 1540.0 L 1016.0 1541.0 L 1018.0 1541.0 L 1018.0 1537.0 L 1017.0 1536.0 Z
    M 680.0 1523.0 L 680.0 1526.0 L 679.0 1527.0 L 679.0 1530.0 L 678.0 1531.0 L 678.0 1534.0 L 677.0 1535.0 L 677.0 1538.0 L 676.0 1539.0 L 676.0 1543.0 L 675.0 1544.0 L 675.0 1547.0 L 674.0 1548.0 L 674.0 1551.0 L 673.0 1552.0 L 673.0 1555.0 L 672.0 1556.0 L 672.0 1559.0 L 671.0 1560.0 L 671.0 1563.0 L 670.0 1564.0 L 670.0 1567.0 L 669.0 1568.0 L 669.0 1571.0 L 668.0 1572.0 L 668.0 1575.0 L 667.0 1576.0 L 667.0 1579.0 L 666.0 1580.0 L 666.0 1583.0 L 665.0 1584.0 L 665.0 1587.0 L 664.0 1588.0 L 664.0 1589.0 L 665.0 1589.0 L 666.0 1590.0 L 669.0 1590.0 L 670.0 1591.0 L 673.0 1591.0 L 674.0 1592.0 L 677.0 1592.0 L 678.0 1593.0 L 681.0 1593.0 L 682.0 1594.0 L 685.0 1594.0 L 686.0 1595.0 L 700.0 1595.0 L 701.0 1594.0 L 703.0 1594.0 L 704.0 1593.0 L 706.0 1593.0 L 707.0 1592.0 L 710.0 1591.0 L 713.0 1588.0 L 714.0 1588.0 L 720.0 1581.0 L 720.0 1580.0 L 721.0 1579.0 L 721.0 1578.0 L 724.0 1573.0 L 724.0 1571.0 L 725.0 1570.0 L 725.0 1566.0 L 726.0 1565.0 L 726.0 1554.0 L 725.0 1553.0 L 725.0 1550.0 L 724.0 1549.0 L 724.0 1547.0 L 723.0 1546.0 L 723.0 1545.0 L 722.0 1544.0 L 721.0 1541.0 L 719.0 1539.0 L 719.0 1538.0 L 715.0 1534.0 L 714.0 1534.0 L 709.0 1530.0 L 707.0 1530.0 L 704.0 1528.0 L 701.0 1528.0 L 700.0 1527.0 L 697.0 1527.0 L 696.0 1526.0 L 693.0 1526.0 L 692.0 1525.0 L 689.0 1525.0 L 688.0 1524.0 L 685.0 1524.0 L 684.0 1523.0 Z
    M 686.0 1526.0 L 692.0 1526.0 L 693.0 1527.0 L 696.0 1527.0 L 697.0 1528.0 L 700.0 1528.0 L 701.0 1529.0 L 702.0 1529.0 L 703.0 1530.0 L 704.0 1530.0 L 705.0 1531.0 L 708.0 1532.0 L 716.0 1540.0 L 716.0 1541.0 L 719.0 1546.0 L 719.0 1548.0 L 720.0 1549.0 L 720.0 1554.0 L 721.0 1555.0 L 721.0 1560.0 L 720.0 1561.0 L 720.0 1567.0 L 719.0 1568.0 L 719.0 1570.0 L 718.0 1571.0 L 718.0 1573.0 L 717.0 1574.0 L 717.0 1575.0 L 716.0 1576.0 L 715.0 1579.0 L 713.0 1581.0 L 713.0 1582.0 L 707.0 1588.0 L 706.0 1588.0 L 704.0 1590.0 L 703.0 1590.0 L 698.0 1593.0 L 694.0 1593.0 L 693.0 1594.0 L 685.0 1594.0 L 684.0 1593.0 L 681.0 1593.0 L 680.0 1592.0 L 677.0 1592.0 L 676.0 1591.0 L 673.0 1591.0 L 670.0 1589.0 L 670.0 1585.0 L 671.0 1584.0 L 671.0 1581.0 L 672.0 1580.0 L 672.0 1577.0 L 673.0 1576.0 L 673.0 1573.0 L 674.0 1572.0 L 674.0 1569.0 L 675.0 1568.0 L 675.0 1565.0 L 676.0 1564.0 L 676.0 1561.0 L 677.0 1560.0 L 677.0 1557.0 L 678.0 1556.0 L 678.0 1553.0 L 679.0 1552.0 L 679.0 1549.0 L 680.0 1548.0 L 680.0 1545.0 L 681.0 1544.0 L 681.0 1541.0 L 682.0 1540.0 L 682.0 1537.0 L 683.0 1536.0 L 683.0 1533.0 L 684.0 1532.0 L 684.0 1529.0 Z
    M 1077.0 1520.0 L 1076.0 1520.0 L 1075.0 1521.0 L 1072.0 1521.0 L 1072.0 1523.0 L 1073.0 1524.0 L 1073.0 1527.0 L 1074.0 1528.0 L 1074.0 1531.0 L 1075.0 1532.0 L 1075.0 1535.0 L 1076.0 1536.0 L 1076.0 1539.0 L 1077.0 1540.0 L 1077.0 1543.0 L 1078.0 1544.0 L 1078.0 1546.0 L 1079.0 1547.0 L 1079.0 1549.0 L 1078.0 1550.0 L 1065.0 1550.0 L 1064.0 1551.0 L 1061.0 1551.0 L 1060.0 1552.0 L 1058.0 1552.0 L 1057.0 1553.0 L 1055.0 1553.0 L 1054.0 1554.0 L 1053.0 1554.0 L 1051.0 1556.0 L 1050.0 1556.0 L 1047.0 1559.0 L 1046.0 1559.0 L 1043.0 1562.0 L 1043.0 1563.0 L 1041.0 1565.0 L 1040.0 1565.0 L 1039.0 1564.0 L 1039.0 1562.0 L 1038.0 1561.0 L 1038.0 1559.0 L 1037.0 1558.0 L 1037.0 1555.0 L 1036.0 1554.0 L 1036.0 1551.0 L 1035.0 1550.0 L 1035.0 1547.0 L 1034.0 1546.0 L 1034.0 1543.0 L 1033.0 1542.0 L 1033.0 1539.0 L 1032.0 1538.0 L 1032.0 1535.0 L 1031.0 1534.0 L 1031.0 1532.0 L 1030.0 1532.0 L 1029.0 1533.0 L 1026.0 1533.0 L 1026.0 1536.0 L 1027.0 1537.0 L 1027.0 1540.0 L 1028.0 1541.0 L 1028.0 1543.0 L 1029.0 1544.0 L 1029.0 1547.0 L 1030.0 1548.0 L 1030.0 1551.0 L 1031.0 1552.0 L 1031.0 1555.0 L 1032.0 1556.0 L 1032.0 1559.0 L 1033.0 1560.0 L 1033.0 1563.0 L 1034.0 1564.0 L 1034.0 1567.0 L 1035.0 1568.0 L 1035.0 1570.0 L 1036.0 1571.0 L 1036.0 1574.0 L 1037.0 1575.0 L 1037.0 1578.0 L 1038.0 1579.0 L 1038.0 1582.0 L 1039.0 1583.0 L 1039.0 1586.0 L 1040.0 1587.0 L 1040.0 1590.0 L 1041.0 1591.0 L 1041.0 1594.0 L 1042.0 1595.0 L 1042.0 1598.0 L 1043.0 1599.0 L 1043.0 1600.0 L 1044.0 1600.0 L 1045.0 1599.0 L 1048.0 1599.0 L 1048.0 1597.0 L 1047.0 1596.0 L 1047.0 1593.0 L 1046.0 1592.0 L 1046.0 1590.0 L 1045.0 1589.0 L 1045.0 1586.0 L 1044.0 1585.0 L 1044.0 1582.0 L 1043.0 1581.0 L 1043.0 1571.0 L 1044.0 1570.0 L 1044.0 1569.0 L 1045.0 1568.0 L 1046.0 1565.0 L 1053.0 1558.0 L 1054.0 1558.0 L 1056.0 1556.0 L 1057.0 1556.0 L 1058.0 1555.0 L 1059.0 1555.0 L 1064.0 1552.0 L 1066.0 1552.0 L 1067.0 1551.0 L 1076.0 1551.0 L 1077.0 1552.0 L 1078.0 1552.0 L 1080.0 1554.0 L 1080.0 1555.0 L 1081.0 1556.0 L 1081.0 1558.0 L 1082.0 1559.0 L 1082.0 1562.0 L 1083.0 1563.0 L 1083.0 1566.0 L 1084.0 1567.0 L 1084.0 1570.0 L 1085.0 1571.0 L 1085.0 1574.0 L 1086.0 1575.0 L 1086.0 1577.0 L 1087.0 1578.0 L 1087.0 1581.0 L 1088.0 1582.0 L 1088.0 1585.0 L 1089.0 1586.0 L 1089.0 1588.0 L 1090.0 1588.0 L 1091.0 1587.0 L 1094.0 1587.0 L 1094.0 1585.0 L 1093.0 1584.0 L 1093.0 1581.0 L 1092.0 1580.0 L 1092.0 1577.0 L 1091.0 1576.0 L 1091.0 1573.0 L 1090.0 1572.0 L 1090.0 1569.0 L 1089.0 1568.0 L 1089.0 1566.0 L 1088.0 1565.0 L 1088.0 1562.0 L 1087.0 1561.0 L 1087.0 1558.0 L 1086.0 1557.0 L 1086.0 1554.0 L 1085.0 1553.0 L 1085.0 1550.0 L 1084.0 1549.0 L 1084.0 1546.0 L 1083.0 1545.0 L 1083.0 1542.0 L 1082.0 1541.0 L 1082.0 1538.0 L 1081.0 1537.0 L 1081.0 1535.0 L 1080.0 1534.0 L 1080.0 1531.0 L 1079.0 1530.0 L 1079.0 1527.0 L 1078.0 1526.0 L 1078.0 1523.0 L 1077.0 1522.0 Z
    M 641.0 1510.0 L 642.0 1511.0 L 642.0 1513.0 L 638.0 1517.0 L 638.0 1518.0 L 634.0 1522.0 L 634.0 1523.0 L 630.0 1527.0 L 630.0 1528.0 L 626.0 1532.0 L 626.0 1533.0 L 622.0 1537.0 L 622.0 1538.0 L 618.0 1542.0 L 618.0 1543.0 L 614.0 1547.0 L 614.0 1548.0 L 606.0 1557.0 L 606.0 1558.0 L 603.0 1561.0 L 603.0 1562.0 L 599.0 1566.0 L 599.0 1568.0 L 601.0 1568.0 L 602.0 1569.0 L 604.0 1569.0 L 605.0 1568.0 L 605.0 1567.0 L 607.0 1565.0 L 607.0 1564.0 L 609.0 1562.0 L 609.0 1561.0 L 612.0 1558.0 L 612.0 1557.0 L 614.0 1555.0 L 615.0 1555.0 L 618.0 1553.0 L 621.0 1553.0 L 622.0 1552.0 L 625.0 1552.0 L 626.0 1553.0 L 630.0 1553.0 L 631.0 1554.0 L 632.0 1554.0 L 633.0 1555.0 L 636.0 1556.0 L 645.0 1565.0 L 645.0 1566.0 L 646.0 1567.0 L 646.0 1569.0 L 647.0 1570.0 L 647.0 1576.0 L 648.0 1577.0 L 648.0 1584.0 L 649.0 1585.0 L 651.0 1585.0 L 652.0 1586.0 L 654.0 1586.0 L 654.0 1585.0 L 653.0 1584.0 L 653.0 1574.0 L 652.0 1573.0 L 652.0 1563.0 L 651.0 1562.0 L 651.0 1552.0 L 650.0 1551.0 L 650.0 1541.0 L 649.0 1540.0 L 649.0 1530.0 L 648.0 1529.0 L 648.0 1519.0 L 647.0 1518.0 L 647.0 1511.0 L 645.0 1511.0 L 644.0 1510.0 Z
    M 640.0 1517.0 L 641.0 1517.0 L 642.0 1518.0 L 642.0 1520.0 L 643.0 1521.0 L 643.0 1531.0 L 644.0 1532.0 L 644.0 1542.0 L 645.0 1543.0 L 645.0 1553.0 L 646.0 1554.0 L 646.0 1560.0 L 645.0 1561.0 L 644.0 1561.0 L 635.0 1552.0 L 634.0 1552.0 L 631.0 1550.0 L 629.0 1550.0 L 628.0 1549.0 L 620.0 1549.0 L 619.0 1548.0 L 619.0 1547.0 L 621.0 1545.0 L 621.0 1544.0 L 623.0 1542.0 L 623.0 1541.0 L 626.0 1538.0 L 626.0 1537.0 L 628.0 1535.0 L 628.0 1534.0 L 630.0 1532.0 L 630.0 1531.0 L 633.0 1528.0 L 633.0 1527.0 L 635.0 1525.0 L 635.0 1524.0 L 637.0 1522.0 L 637.0 1521.0 L 639.0 1519.0 L 639.0 1518.0 Z
    M 562.0 1477.0 L 562.0 1478.0 L 561.0 1479.0 L 561.0 1481.0 L 560.0 1482.0 L 560.0 1483.0 L 557.0 1488.0 L 557.0 1490.0 L 556.0 1491.0 L 556.0 1492.0 L 553.0 1497.0 L 553.0 1499.0 L 552.0 1500.0 L 552.0 1501.0 L 549.0 1506.0 L 549.0 1508.0 L 548.0 1509.0 L 548.0 1510.0 L 545.0 1515.0 L 545.0 1517.0 L 544.0 1518.0 L 544.0 1519.0 L 541.0 1524.0 L 541.0 1526.0 L 540.0 1527.0 L 540.0 1528.0 L 537.0 1533.0 L 537.0 1535.0 L 535.0 1538.0 L 535.0 1540.0 L 536.0 1540.0 L 539.0 1542.0 L 541.0 1539.0 L 541.0 1537.0 L 542.0 1536.0 L 542.0 1534.0 L 543.0 1533.0 L 543.0 1531.0 L 545.0 1528.0 L 545.0 1526.0 L 546.0 1525.0 L 546.0 1523.0 L 548.0 1520.0 L 548.0 1518.0 L 549.0 1517.0 L 549.0 1515.0 L 550.0 1514.0 L 550.0 1512.0 L 552.0 1509.0 L 552.0 1507.0 L 553.0 1506.0 L 553.0 1504.0 L 554.0 1503.0 L 554.0 1501.0 L 556.0 1498.0 L 556.0 1496.0 L 557.0 1495.0 L 557.0 1493.0 L 558.0 1492.0 L 558.0 1490.0 L 559.0 1489.0 L 559.0 1488.0 L 560.0 1487.0 L 560.0 1485.0 L 561.0 1484.0 L 562.0 1484.0 L 563.0 1485.0 L 563.0 1489.0 L 564.0 1490.0 L 564.0 1502.0 L 565.0 1503.0 L 565.0 1516.0 L 566.0 1517.0 L 566.0 1530.0 L 567.0 1531.0 L 567.0 1536.0 L 569.0 1534.0 L 570.0 1534.0 L 576.0 1528.0 L 577.0 1528.0 L 584.0 1521.0 L 585.0 1521.0 L 591.0 1515.0 L 592.0 1515.0 L 599.0 1508.0 L 600.0 1508.0 L 605.0 1503.0 L 606.0 1503.0 L 607.0 1504.0 L 607.0 1505.0 L 606.0 1506.0 L 606.0 1508.0 L 605.0 1509.0 L 605.0 1510.0 L 602.0 1515.0 L 602.0 1517.0 L 601.0 1518.0 L 601.0 1519.0 L 598.0 1524.0 L 598.0 1526.0 L 597.0 1527.0 L 597.0 1528.0 L 594.0 1533.0 L 594.0 1535.0 L 593.0 1536.0 L 593.0 1537.0 L 590.0 1542.0 L 590.0 1544.0 L 589.0 1545.0 L 589.0 1546.0 L 586.0 1551.0 L 586.0 1553.0 L 585.0 1554.0 L 585.0 1555.0 L 582.0 1560.0 L 582.0 1561.0 L 583.0 1561.0 L 584.0 1562.0 L 587.0 1563.0 L 588.0 1562.0 L 588.0 1560.0 L 589.0 1559.0 L 589.0 1558.0 L 592.0 1553.0 L 592.0 1551.0 L 593.0 1550.0 L 593.0 1549.0 L 596.0 1544.0 L 596.0 1542.0 L 597.0 1541.0 L 597.0 1540.0 L 600.0 1535.0 L 600.0 1533.0 L 601.0 1532.0 L 601.0 1531.0 L 604.0 1526.0 L 604.0 1524.0 L 605.0 1523.0 L 605.0 1522.0 L 608.0 1517.0 L 608.0 1515.0 L 609.0 1514.0 L 609.0 1513.0 L 612.0 1508.0 L 612.0 1506.0 L 613.0 1505.0 L 613.0 1504.0 L 614.0 1503.0 L 615.0 1500.0 L 614.0 1500.0 L 611.0 1498.0 L 609.0 1498.0 L 606.0 1501.0 L 605.0 1501.0 L 598.0 1508.0 L 597.0 1508.0 L 590.0 1515.0 L 589.0 1515.0 L 583.0 1521.0 L 582.0 1521.0 L 575.0 1528.0 L 572.0 1529.0 L 571.0 1528.0 L 571.0 1523.0 L 570.0 1522.0 L 570.0 1509.0 L 569.0 1508.0 L 569.0 1496.0 L 568.0 1495.0 L 568.0 1482.0 L 567.0 1481.0 L 567.0 1479.0 L 566.0 1478.0 L 564.0 1478.0 L 563.0 1477.0 Z
    M 1197.0 1473.0 L 1194.0 1473.0 L 1193.0 1474.0 L 1192.0 1474.0 L 1192.0 1476.0 L 1193.0 1477.0 L 1193.0 1478.0 L 1194.0 1479.0 L 1194.0 1480.0 L 1195.0 1481.0 L 1195.0 1482.0 L 1198.0 1487.0 L 1198.0 1489.0 L 1199.0 1490.0 L 1199.0 1491.0 L 1200.0 1492.0 L 1200.0 1493.0 L 1201.0 1494.0 L 1201.0 1495.0 L 1202.0 1496.0 L 1202.0 1497.0 L 1203.0 1498.0 L 1204.0 1501.0 L 1203.0 1502.0 L 1197.0 1502.0 L 1196.0 1503.0 L 1193.0 1503.0 L 1192.0 1504.0 L 1190.0 1504.0 L 1189.0 1505.0 L 1188.0 1505.0 L 1187.0 1506.0 L 1186.0 1506.0 L 1185.0 1507.0 L 1182.0 1508.0 L 1179.0 1511.0 L 1178.0 1511.0 L 1174.0 1515.0 L 1174.0 1516.0 L 1172.0 1518.0 L 1172.0 1519.0 L 1170.0 1521.0 L 1170.0 1522.0 L 1169.0 1523.0 L 1168.0 1523.0 L 1167.0 1522.0 L 1167.0 1521.0 L 1166.0 1520.0 L 1166.0 1519.0 L 1165.0 1518.0 L 1165.0 1517.0 L 1164.0 1516.0 L 1164.0 1515.0 L 1161.0 1510.0 L 1161.0 1508.0 L 1160.0 1507.0 L 1160.0 1506.0 L 1159.0 1505.0 L 1159.0 1504.0 L 1158.0 1503.0 L 1158.0 1502.0 L 1157.0 1501.0 L 1157.0 1500.0 L 1154.0 1495.0 L 1154.0 1493.0 L 1152.0 1493.0 L 1151.0 1494.0 L 1149.0 1494.0 L 1149.0 1496.0 L 1152.0 1501.0 L 1152.0 1503.0 L 1153.0 1504.0 L 1153.0 1505.0 L 1154.0 1506.0 L 1154.0 1507.0 L 1155.0 1508.0 L 1155.0 1509.0 L 1156.0 1510.0 L 1156.0 1511.0 L 1159.0 1516.0 L 1159.0 1518.0 L 1160.0 1519.0 L 1160.0 1520.0 L 1161.0 1521.0 L 1161.0 1522.0 L 1162.0 1523.0 L 1162.0 1524.0 L 1165.0 1529.0 L 1165.0 1531.0 L 1166.0 1532.0 L 1166.0 1533.0 L 1167.0 1534.0 L 1167.0 1535.0 L 1168.0 1536.0 L 1168.0 1537.0 L 1169.0 1538.0 L 1169.0 1539.0 L 1172.0 1544.0 L 1172.0 1546.0 L 1173.0 1547.0 L 1173.0 1548.0 L 1174.0 1549.0 L 1174.0 1550.0 L 1175.0 1551.0 L 1175.0 1552.0 L 1178.0 1557.0 L 1179.0 1556.0 L 1182.0 1555.0 L 1182.0 1554.0 L 1181.0 1553.0 L 1181.0 1551.0 L 1180.0 1550.0 L 1180.0 1549.0 L 1179.0 1548.0 L 1179.0 1547.0 L 1178.0 1546.0 L 1178.0 1545.0 L 1175.0 1540.0 L 1175.0 1538.0 L 1173.0 1535.0 L 1173.0 1525.0 L 1174.0 1524.0 L 1174.0 1523.0 L 1175.0 1522.0 L 1176.0 1519.0 L 1179.0 1516.0 L 1179.0 1515.0 L 1184.0 1510.0 L 1185.0 1510.0 L 1188.0 1507.0 L 1189.0 1507.0 L 1194.0 1504.0 L 1196.0 1504.0 L 1197.0 1503.0 L 1203.0 1503.0 L 1207.0 1507.0 L 1207.0 1508.0 L 1208.0 1509.0 L 1208.0 1510.0 L 1209.0 1511.0 L 1209.0 1512.0 L 1212.0 1517.0 L 1212.0 1519.0 L 1213.0 1520.0 L 1213.0 1521.0 L 1214.0 1522.0 L 1214.0 1523.0 L 1215.0 1524.0 L 1215.0 1525.0 L 1216.0 1526.0 L 1216.0 1527.0 L 1219.0 1532.0 L 1219.0 1534.0 L 1220.0 1535.0 L 1220.0 1536.0 L 1221.0 1537.0 L 1222.0 1536.0 L 1225.0 1535.0 L 1225.0 1533.0 L 1224.0 1532.0 L 1224.0 1531.0 L 1221.0 1526.0 L 1221.0 1524.0 L 1220.0 1523.0 L 1220.0 1522.0 L 1219.0 1521.0 L 1219.0 1520.0 L 1218.0 1519.0 L 1218.0 1518.0 L 1217.0 1517.0 L 1217.0 1516.0 L 1214.0 1511.0 L 1214.0 1509.0 L 1213.0 1508.0 L 1213.0 1507.0 L 1212.0 1506.0 L 1212.0 1505.0 L 1211.0 1504.0 L 1211.0 1503.0 L 1210.0 1502.0 L 1210.0 1501.0 L 1207.0 1496.0 L 1207.0 1494.0 L 1206.0 1493.0 L 1206.0 1492.0 L 1205.0 1491.0 L 1205.0 1490.0 L 1204.0 1489.0 L 1204.0 1488.0 L 1201.0 1483.0 L 1201.0 1481.0 L 1200.0 1480.0 L 1200.0 1479.0 L 1199.0 1478.0 L 1199.0 1477.0 L 1198.0 1476.0 Z
    M 508.0 1447.0 L 507.0 1450.0 L 505.0 1452.0 L 505.0 1453.0 L 504.0 1454.0 L 504.0 1455.0 L 503.0 1456.0 L 502.0 1459.0 L 500.0 1461.0 L 500.0 1462.0 L 499.0 1463.0 L 499.0 1464.0 L 498.0 1465.0 L 497.0 1468.0 L 495.0 1470.0 L 495.0 1471.0 L 494.0 1472.0 L 493.0 1475.0 L 491.0 1477.0 L 491.0 1478.0 L 490.0 1479.0 L 490.0 1480.0 L 489.0 1481.0 L 488.0 1484.0 L 486.0 1486.0 L 486.0 1487.0 L 485.0 1488.0 L 485.0 1489.0 L 484.0 1490.0 L 483.0 1493.0 L 481.0 1495.0 L 481.0 1496.0 L 480.0 1497.0 L 480.0 1498.0 L 479.0 1499.0 L 478.0 1502.0 L 476.0 1504.0 L 475.0 1507.0 L 476.0 1508.0 L 477.0 1508.0 L 478.0 1509.0 L 481.0 1510.0 L 483.0 1512.0 L 484.0 1512.0 L 485.0 1513.0 L 486.0 1513.0 L 487.0 1514.0 L 490.0 1515.0 L 492.0 1517.0 L 493.0 1517.0 L 496.0 1519.0 L 498.0 1519.0 L 499.0 1520.0 L 501.0 1520.0 L 502.0 1521.0 L 506.0 1521.0 L 507.0 1522.0 L 512.0 1522.0 L 513.0 1521.0 L 517.0 1521.0 L 518.0 1520.0 L 520.0 1520.0 L 521.0 1519.0 L 523.0 1519.0 L 524.0 1518.0 L 525.0 1518.0 L 527.0 1516.0 L 528.0 1516.0 L 537.0 1507.0 L 538.0 1504.0 L 540.0 1502.0 L 540.0 1500.0 L 541.0 1499.0 L 541.0 1498.0 L 542.0 1497.0 L 542.0 1495.0 L 543.0 1494.0 L 543.0 1489.0 L 544.0 1488.0 L 544.0 1482.0 L 543.0 1481.0 L 543.0 1477.0 L 542.0 1476.0 L 542.0 1474.0 L 541.0 1473.0 L 541.0 1472.0 L 540.0 1471.0 L 539.0 1468.0 L 533.0 1461.0 L 532.0 1461.0 L 527.0 1457.0 L 526.0 1457.0 L 525.0 1456.0 L 522.0 1455.0 L 520.0 1453.0 L 519.0 1453.0 L 518.0 1452.0 L 517.0 1452.0 L 516.0 1451.0 L 513.0 1450.0 L 511.0 1448.0 Z
    M 516.0 1452.0 L 518.0 1454.0 L 519.0 1454.0 L 520.0 1455.0 L 523.0 1456.0 L 525.0 1458.0 L 526.0 1458.0 L 528.0 1460.0 L 529.0 1460.0 L 535.0 1467.0 L 535.0 1468.0 L 538.0 1473.0 L 538.0 1476.0 L 539.0 1477.0 L 539.0 1487.0 L 538.0 1488.0 L 538.0 1491.0 L 537.0 1492.0 L 537.0 1494.0 L 536.0 1495.0 L 536.0 1497.0 L 535.0 1498.0 L 534.0 1501.0 L 532.0 1503.0 L 532.0 1504.0 L 529.0 1507.0 L 529.0 1508.0 L 526.0 1511.0 L 525.0 1511.0 L 522.0 1514.0 L 521.0 1514.0 L 519.0 1516.0 L 518.0 1516.0 L 517.0 1517.0 L 515.0 1517.0 L 514.0 1518.0 L 512.0 1518.0 L 511.0 1519.0 L 500.0 1519.0 L 499.0 1518.0 L 497.0 1518.0 L 496.0 1517.0 L 494.0 1517.0 L 493.0 1516.0 L 490.0 1515.0 L 488.0 1513.0 L 487.0 1513.0 L 486.0 1512.0 L 483.0 1511.0 L 481.0 1509.0 L 481.0 1506.0 L 482.0 1505.0 L 483.0 1502.0 L 485.0 1500.0 L 485.0 1499.0 L 486.0 1498.0 L 486.0 1497.0 L 487.0 1496.0 L 488.0 1493.0 L 490.0 1491.0 L 490.0 1490.0 L 491.0 1489.0 L 492.0 1486.0 L 494.0 1484.0 L 494.0 1483.0 L 495.0 1482.0 L 495.0 1481.0 L 496.0 1480.0 L 497.0 1477.0 L 499.0 1475.0 L 499.0 1474.0 L 500.0 1473.0 L 501.0 1470.0 L 503.0 1468.0 L 503.0 1467.0 L 504.0 1466.0 L 504.0 1465.0 L 505.0 1464.0 L 506.0 1461.0 L 508.0 1459.0 L 508.0 1458.0 L 509.0 1457.0 L 510.0 1454.0 L 512.0 1452.0 Z
    M 1247.0 1444.0 L 1246.0 1444.0 L 1245.0 1445.0 L 1242.0 1446.0 L 1240.0 1448.0 L 1239.0 1448.0 L 1238.0 1449.0 L 1235.0 1450.0 L 1233.0 1452.0 L 1232.0 1452.0 L 1231.0 1453.0 L 1228.0 1454.0 L 1226.0 1456.0 L 1225.0 1456.0 L 1224.0 1457.0 L 1221.0 1458.0 L 1219.0 1460.0 L 1218.0 1460.0 L 1217.0 1461.0 L 1214.0 1462.0 L 1212.0 1464.0 L 1211.0 1464.0 L 1206.0 1467.0 L 1206.0 1469.0 L 1207.0 1470.0 L 1207.0 1471.0 L 1209.0 1473.0 L 1209.0 1474.0 L 1210.0 1475.0 L 1211.0 1478.0 L 1213.0 1480.0 L 1213.0 1481.0 L 1214.0 1482.0 L 1215.0 1485.0 L 1217.0 1487.0 L 1218.0 1490.0 L 1220.0 1492.0 L 1220.0 1493.0 L 1221.0 1494.0 L 1222.0 1497.0 L 1224.0 1499.0 L 1224.0 1500.0 L 1225.0 1501.0 L 1226.0 1504.0 L 1228.0 1506.0 L 1228.0 1507.0 L 1229.0 1508.0 L 1230.0 1511.0 L 1232.0 1513.0 L 1232.0 1514.0 L 1233.0 1515.0 L 1234.0 1518.0 L 1236.0 1520.0 L 1236.0 1521.0 L 1237.0 1522.0 L 1238.0 1525.0 L 1240.0 1527.0 L 1241.0 1526.0 L 1244.0 1525.0 L 1246.0 1523.0 L 1247.0 1523.0 L 1248.0 1522.0 L 1251.0 1521.0 L 1253.0 1519.0 L 1254.0 1519.0 L 1255.0 1518.0 L 1258.0 1517.0 L 1260.0 1515.0 L 1261.0 1515.0 L 1262.0 1514.0 L 1265.0 1513.0 L 1267.0 1511.0 L 1270.0 1510.0 L 1272.0 1508.0 L 1273.0 1508.0 L 1274.0 1507.0 L 1277.0 1506.0 L 1279.0 1504.0 L 1280.0 1504.0 L 1281.0 1503.0 L 1279.0 1501.0 L 1279.0 1500.0 L 1278.0 1499.0 L 1277.0 1499.0 L 1271.0 1505.0 L 1270.0 1505.0 L 1266.0 1509.0 L 1265.0 1509.0 L 1262.0 1512.0 L 1261.0 1512.0 L 1259.0 1514.0 L 1258.0 1514.0 L 1256.0 1516.0 L 1255.0 1516.0 L 1253.0 1518.0 L 1252.0 1518.0 L 1247.0 1522.0 L 1243.0 1522.0 L 1242.0 1521.0 L 1242.0 1520.0 L 1240.0 1518.0 L 1240.0 1517.0 L 1239.0 1516.0 L 1238.0 1513.0 L 1236.0 1511.0 L 1236.0 1510.0 L 1235.0 1509.0 L 1234.0 1506.0 L 1232.0 1504.0 L 1232.0 1503.0 L 1231.0 1502.0 L 1230.0 1499.0 L 1228.0 1497.0 L 1227.0 1494.0 L 1231.0 1490.0 L 1232.0 1490.0 L 1235.0 1488.0 L 1237.0 1488.0 L 1242.0 1485.0 L 1244.0 1485.0 L 1247.0 1483.0 L 1249.0 1483.0 L 1252.0 1481.0 L 1254.0 1481.0 L 1255.0 1480.0 L 1257.0 1480.0 L 1258.0 1479.0 L 1259.0 1479.0 L 1259.0 1478.0 L 1257.0 1476.0 L 1257.0 1475.0 L 1255.0 1475.0 L 1254.0 1476.0 L 1251.0 1477.0 L 1249.0 1479.0 L 1248.0 1479.0 L 1247.0 1480.0 L 1244.0 1481.0 L 1242.0 1483.0 L 1241.0 1483.0 L 1240.0 1484.0 L 1237.0 1485.0 L 1235.0 1487.0 L 1234.0 1487.0 L 1233.0 1488.0 L 1230.0 1489.0 L 1228.0 1491.0 L 1226.0 1491.0 L 1223.0 1488.0 L 1223.0 1487.0 L 1221.0 1485.0 L 1221.0 1484.0 L 1220.0 1483.0 L 1219.0 1480.0 L 1217.0 1478.0 L 1217.0 1477.0 L 1216.0 1476.0 L 1215.0 1473.0 L 1213.0 1471.0 L 1213.0 1470.0 L 1212.0 1469.0 L 1212.0 1465.0 L 1213.0 1464.0 L 1214.0 1464.0 L 1215.0 1463.0 L 1216.0 1463.0 L 1217.0 1462.0 L 1218.0 1462.0 L 1219.0 1461.0 L 1220.0 1461.0 L 1221.0 1460.0 L 1222.0 1460.0 L 1223.0 1459.0 L 1224.0 1459.0 L 1225.0 1458.0 L 1226.0 1458.0 L 1231.0 1455.0 L 1233.0 1455.0 L 1234.0 1454.0 L 1235.0 1454.0 L 1236.0 1453.0 L 1238.0 1453.0 L 1241.0 1451.0 L 1243.0 1451.0 L 1244.0 1450.0 L 1246.0 1450.0 L 1247.0 1449.0 L 1249.0 1449.0 L 1249.0 1447.0 L 1247.0 1445.0 Z
    M 1269.0 1429.0 L 1270.0 1429.0 L 1272.0 1431.0 L 1272.0 1432.0 L 1273.0 1433.0 L 1273.0 1436.0 L 1274.0 1437.0 L 1274.0 1440.0 L 1275.0 1441.0 L 1275.0 1444.0 L 1276.0 1445.0 L 1276.0 1447.0 L 1277.0 1448.0 L 1277.0 1451.0 L 1278.0 1452.0 L 1278.0 1455.0 L 1279.0 1456.0 L 1279.0 1459.0 L 1280.0 1460.0 L 1280.0 1463.0 L 1281.0 1464.0 L 1281.0 1466.0 L 1282.0 1467.0 L 1282.0 1470.0 L 1283.0 1471.0 L 1283.0 1474.0 L 1284.0 1475.0 L 1284.0 1478.0 L 1285.0 1479.0 L 1285.0 1481.0 L 1286.0 1482.0 L 1286.0 1485.0 L 1287.0 1486.0 L 1287.0 1489.0 L 1288.0 1490.0 L 1288.0 1493.0 L 1289.0 1494.0 L 1289.0 1497.0 L 1290.0 1498.0 L 1292.0 1496.0 L 1293.0 1496.0 L 1294.0 1495.0 L 1294.0 1492.0 L 1293.0 1491.0 L 1293.0 1489.0 L 1291.0 1486.0 L 1291.0 1484.0 L 1290.0 1483.0 L 1290.0 1479.0 L 1289.0 1478.0 L 1289.0 1477.0 L 1290.0 1476.0 L 1290.0 1474.0 L 1291.0 1473.0 L 1291.0 1471.0 L 1294.0 1468.0 L 1294.0 1467.0 L 1296.0 1465.0 L 1297.0 1465.0 L 1299.0 1463.0 L 1300.0 1463.0 L 1303.0 1461.0 L 1305.0 1461.0 L 1306.0 1460.0 L 1309.0 1460.0 L 1310.0 1459.0 L 1316.0 1459.0 L 1317.0 1460.0 L 1320.0 1460.0 L 1321.0 1461.0 L 1324.0 1462.0 L 1326.0 1464.0 L 1327.0 1464.0 L 1329.0 1466.0 L 1330.0 1466.0 L 1333.0 1468.0 L 1334.0 1468.0 L 1337.0 1465.0 L 1338.0 1465.0 L 1337.0 1464.0 L 1336.0 1464.0 L 1334.0 1462.0 L 1331.0 1461.0 L 1326.0 1457.0 L 1323.0 1456.0 L 1321.0 1454.0 L 1320.0 1454.0 L 1319.0 1453.0 L 1318.0 1453.0 L 1316.0 1451.0 L 1313.0 1450.0 L 1308.0 1446.0 L 1305.0 1445.0 L 1303.0 1443.0 L 1302.0 1443.0 L 1301.0 1442.0 L 1300.0 1442.0 L 1298.0 1440.0 L 1295.0 1439.0 L 1290.0 1435.0 L 1287.0 1434.0 L 1285.0 1432.0 L 1284.0 1432.0 L 1283.0 1431.0 L 1282.0 1431.0 L 1280.0 1429.0 L 1277.0 1428.0 L 1275.0 1426.0 L 1273.0 1426.0 L 1272.0 1427.0 L 1271.0 1427.0 Z
    M 1275.0 1435.0 L 1276.0 1434.0 L 1278.0 1434.0 L 1280.0 1436.0 L 1283.0 1437.0 L 1285.0 1439.0 L 1288.0 1440.0 L 1290.0 1442.0 L 1291.0 1442.0 L 1292.0 1443.0 L 1293.0 1443.0 L 1295.0 1445.0 L 1298.0 1446.0 L 1303.0 1450.0 L 1304.0 1450.0 L 1305.0 1451.0 L 1306.0 1451.0 L 1308.0 1453.0 L 1311.0 1454.0 L 1313.0 1456.0 L 1313.0 1457.0 L 1312.0 1458.0 L 1305.0 1458.0 L 1304.0 1459.0 L 1301.0 1459.0 L 1300.0 1460.0 L 1298.0 1460.0 L 1297.0 1461.0 L 1296.0 1461.0 L 1294.0 1463.0 L 1293.0 1463.0 L 1290.0 1466.0 L 1290.0 1467.0 L 1288.0 1469.0 L 1287.0 1469.0 L 1285.0 1467.0 L 1285.0 1465.0 L 1284.0 1464.0 L 1284.0 1462.0 L 1283.0 1461.0 L 1283.0 1459.0 L 1282.0 1458.0 L 1282.0 1456.0 L 1281.0 1455.0 L 1281.0 1453.0 L 1280.0 1452.0 L 1280.0 1450.0 L 1279.0 1449.0 L 1279.0 1447.0 L 1278.0 1446.0 L 1278.0 1444.0 L 1277.0 1443.0 L 1277.0 1442.0 L 1276.0 1441.0 L 1276.0 1439.0 L 1275.0 1438.0 Z
    M 456.0 1412.0 L 454.0 1414.0 L 454.0 1415.0 L 452.0 1417.0 L 452.0 1418.0 L 450.0 1420.0 L 450.0 1421.0 L 448.0 1423.0 L 448.0 1424.0 L 446.0 1426.0 L 446.0 1427.0 L 444.0 1429.0 L 444.0 1430.0 L 441.0 1433.0 L 441.0 1434.0 L 439.0 1436.0 L 439.0 1437.0 L 437.0 1439.0 L 437.0 1440.0 L 435.0 1442.0 L 435.0 1443.0 L 433.0 1445.0 L 433.0 1446.0 L 431.0 1448.0 L 431.0 1449.0 L 429.0 1451.0 L 429.0 1452.0 L 426.0 1455.0 L 426.0 1456.0 L 424.0 1458.0 L 424.0 1459.0 L 422.0 1461.0 L 422.0 1462.0 L 418.0 1467.0 L 418.0 1469.0 L 421.0 1471.0 L 422.0 1471.0 L 423.0 1470.0 L 423.0 1469.0 L 425.0 1467.0 L 426.0 1464.0 L 428.0 1462.0 L 428.0 1461.0 L 429.0 1460.0 L 430.0 1457.0 L 432.0 1455.0 L 433.0 1452.0 L 435.0 1450.0 L 435.0 1449.0 L 436.0 1448.0 L 437.0 1445.0 L 439.0 1443.0 L 440.0 1440.0 L 442.0 1438.0 L 443.0 1435.0 L 445.0 1433.0 L 445.0 1432.0 L 446.0 1431.0 L 447.0 1428.0 L 449.0 1426.0 L 450.0 1423.0 L 452.0 1421.0 L 452.0 1420.0 L 453.0 1419.0 L 454.0 1419.0 L 455.0 1420.0 L 455.0 1428.0 L 456.0 1429.0 L 456.0 1480.0 L 457.0 1481.0 L 457.0 1496.0 L 458.0 1496.0 L 460.0 1498.0 L 461.0 1498.0 L 464.0 1495.0 L 464.0 1494.0 L 466.0 1492.0 L 466.0 1491.0 L 468.0 1489.0 L 468.0 1488.0 L 470.0 1486.0 L 470.0 1485.0 L 472.0 1483.0 L 472.0 1482.0 L 474.0 1480.0 L 474.0 1479.0 L 476.0 1477.0 L 476.0 1476.0 L 479.0 1473.0 L 479.0 1472.0 L 481.0 1470.0 L 481.0 1469.0 L 483.0 1467.0 L 483.0 1466.0 L 485.0 1464.0 L 485.0 1463.0 L 487.0 1461.0 L 487.0 1460.0 L 489.0 1458.0 L 489.0 1457.0 L 491.0 1455.0 L 491.0 1454.0 L 494.0 1451.0 L 494.0 1450.0 L 496.0 1448.0 L 496.0 1447.0 L 500.0 1442.0 L 498.0 1440.0 L 497.0 1440.0 L 496.0 1439.0 L 495.0 1439.0 L 494.0 1440.0 L 494.0 1441.0 L 493.0 1442.0 L 492.0 1445.0 L 490.0 1447.0 L 489.0 1450.0 L 487.0 1452.0 L 486.0 1455.0 L 484.0 1457.0 L 484.0 1458.0 L 483.0 1459.0 L 482.0 1462.0 L 480.0 1464.0 L 479.0 1467.0 L 477.0 1469.0 L 476.0 1472.0 L 474.0 1474.0 L 474.0 1475.0 L 473.0 1476.0 L 472.0 1479.0 L 470.0 1481.0 L 469.0 1484.0 L 467.0 1486.0 L 467.0 1487.0 L 466.0 1488.0 L 465.0 1491.0 L 464.0 1492.0 L 463.0 1492.0 L 462.0 1491.0 L 462.0 1475.0 L 461.0 1474.0 L 461.0 1417.0 L 460.0 1416.0 L 460.0 1414.0 L 459.0 1414.0 L 457.0 1412.0 Z
    M 424.0 1386.0 L 423.0 1389.0 L 421.0 1391.0 L 418.0 1392.0 L 416.0 1394.0 L 413.0 1395.0 L 411.0 1397.0 L 408.0 1398.0 L 406.0 1400.0 L 403.0 1401.0 L 401.0 1403.0 L 398.0 1404.0 L 396.0 1406.0 L 393.0 1407.0 L 388.0 1411.0 L 385.0 1412.0 L 383.0 1414.0 L 380.0 1415.0 L 378.0 1417.0 L 375.0 1418.0 L 373.0 1420.0 L 370.0 1421.0 L 368.0 1423.0 L 367.0 1423.0 L 364.0 1425.0 L 364.0 1426.0 L 366.0 1428.0 L 367.0 1428.0 L 368.0 1429.0 L 369.0 1428.0 L 370.0 1428.0 L 373.0 1425.0 L 374.0 1425.0 L 376.0 1423.0 L 377.0 1423.0 L 379.0 1421.0 L 380.0 1421.0 L 383.0 1419.0 L 389.0 1419.0 L 390.0 1420.0 L 392.0 1420.0 L 393.0 1421.0 L 396.0 1422.0 L 398.0 1424.0 L 399.0 1424.0 L 401.0 1426.0 L 401.0 1427.0 L 404.0 1430.0 L 404.0 1431.0 L 407.0 1436.0 L 407.0 1439.0 L 408.0 1440.0 L 408.0 1446.0 L 407.0 1447.0 L 407.0 1450.0 L 406.0 1451.0 L 406.0 1454.0 L 405.0 1455.0 L 405.0 1457.0 L 404.0 1458.0 L 404.0 1459.0 L 405.0 1460.0 L 406.0 1460.0 L 408.0 1462.0 L 409.0 1462.0 L 409.0 1460.0 L 410.0 1459.0 L 410.0 1456.0 L 411.0 1455.0 L 411.0 1452.0 L 412.0 1451.0 L 412.0 1449.0 L 413.0 1448.0 L 413.0 1445.0 L 414.0 1444.0 L 414.0 1441.0 L 415.0 1440.0 L 415.0 1438.0 L 416.0 1437.0 L 416.0 1434.0 L 417.0 1433.0 L 417.0 1430.0 L 418.0 1429.0 L 418.0 1427.0 L 419.0 1426.0 L 419.0 1423.0 L 420.0 1422.0 L 420.0 1419.0 L 421.0 1418.0 L 421.0 1416.0 L 422.0 1415.0 L 422.0 1412.0 L 423.0 1411.0 L 423.0 1408.0 L 424.0 1407.0 L 424.0 1405.0 L 425.0 1404.0 L 425.0 1401.0 L 426.0 1400.0 L 426.0 1397.0 L 427.0 1396.0 L 427.0 1393.0 L 428.0 1392.0 L 428.0 1389.0 L 427.0 1389.0 Z
    M 421.0 1393.0 L 422.0 1394.0 L 422.0 1395.0 L 421.0 1396.0 L 421.0 1399.0 L 420.0 1400.0 L 420.0 1402.0 L 419.0 1403.0 L 419.0 1406.0 L 418.0 1407.0 L 418.0 1410.0 L 417.0 1411.0 L 417.0 1413.0 L 416.0 1414.0 L 416.0 1417.0 L 415.0 1418.0 L 415.0 1421.0 L 414.0 1422.0 L 414.0 1424.0 L 413.0 1425.0 L 413.0 1428.0 L 412.0 1429.0 L 412.0 1432.0 L 411.0 1433.0 L 411.0 1435.0 L 410.0 1436.0 L 409.0 1436.0 L 407.0 1433.0 L 407.0 1431.0 L 406.0 1430.0 L 406.0 1429.0 L 405.0 1428.0 L 404.0 1425.0 L 398.0 1419.0 L 397.0 1419.0 L 395.0 1417.0 L 393.0 1417.0 L 392.0 1416.0 L 391.0 1416.0 L 390.0 1415.0 L 390.0 1414.0 L 392.0 1412.0 L 393.0 1412.0 L 395.0 1410.0 L 396.0 1410.0 L 399.0 1407.0 L 400.0 1407.0 L 402.0 1405.0 L 403.0 1405.0 L 405.0 1403.0 L 406.0 1403.0 L 408.0 1401.0 L 409.0 1401.0 L 412.0 1398.0 L 413.0 1398.0 L 418.0 1394.0 Z
    M 1339.0 1379.0 L 1338.0 1380.0 L 1335.0 1380.0 L 1334.0 1381.0 L 1331.0 1382.0 L 1329.0 1384.0 L 1328.0 1384.0 L 1324.0 1388.0 L 1323.0 1388.0 L 1319.0 1392.0 L 1318.0 1392.0 L 1313.0 1397.0 L 1312.0 1397.0 L 1307.0 1402.0 L 1306.0 1402.0 L 1303.0 1405.0 L 1303.0 1406.0 L 1307.0 1410.0 L 1307.0 1411.0 L 1312.0 1416.0 L 1312.0 1417.0 L 1316.0 1421.0 L 1316.0 1422.0 L 1321.0 1427.0 L 1321.0 1428.0 L 1325.0 1432.0 L 1325.0 1433.0 L 1330.0 1438.0 L 1330.0 1439.0 L 1335.0 1444.0 L 1335.0 1445.0 L 1339.0 1449.0 L 1339.0 1450.0 L 1344.0 1455.0 L 1344.0 1456.0 L 1346.0 1458.0 L 1347.0 1458.0 L 1350.0 1455.0 L 1350.0 1454.0 L 1345.0 1449.0 L 1345.0 1448.0 L 1341.0 1444.0 L 1341.0 1443.0 L 1336.0 1438.0 L 1336.0 1437.0 L 1331.0 1432.0 L 1331.0 1431.0 L 1327.0 1427.0 L 1327.0 1426.0 L 1322.0 1421.0 L 1322.0 1420.0 L 1317.0 1415.0 L 1317.0 1414.0 L 1309.0 1405.0 L 1309.0 1402.0 L 1315.0 1396.0 L 1316.0 1396.0 L 1325.0 1388.0 L 1326.0 1388.0 L 1328.0 1386.0 L 1329.0 1386.0 L 1330.0 1385.0 L 1332.0 1385.0 L 1333.0 1384.0 L 1342.0 1384.0 L 1343.0 1385.0 L 1345.0 1385.0 L 1347.0 1387.0 L 1348.0 1387.0 L 1351.0 1390.0 L 1351.0 1391.0 L 1353.0 1393.0 L 1353.0 1394.0 L 1355.0 1397.0 L 1355.0 1399.0 L 1356.0 1400.0 L 1356.0 1404.0 L 1355.0 1405.0 L 1355.0 1408.0 L 1354.0 1409.0 L 1354.0 1410.0 L 1352.0 1412.0 L 1352.0 1413.0 L 1346.0 1419.0 L 1345.0 1419.0 L 1340.0 1424.0 L 1339.0 1424.0 L 1336.0 1427.0 L 1338.0 1427.0 L 1342.0 1423.0 L 1344.0 1423.0 L 1345.0 1422.0 L 1349.0 1422.0 L 1350.0 1423.0 L 1355.0 1423.0 L 1356.0 1424.0 L 1359.0 1424.0 L 1360.0 1425.0 L 1363.0 1425.0 L 1364.0 1426.0 L 1367.0 1426.0 L 1368.0 1427.0 L 1372.0 1427.0 L 1373.0 1428.0 L 1383.0 1428.0 L 1384.0 1427.0 L 1385.0 1427.0 L 1388.0 1424.0 L 1382.0 1424.0 L 1381.0 1423.0 L 1374.0 1423.0 L 1373.0 1422.0 L 1370.0 1422.0 L 1369.0 1421.0 L 1366.0 1421.0 L 1365.0 1420.0 L 1362.0 1420.0 L 1361.0 1419.0 L 1356.0 1419.0 L 1355.0 1418.0 L 1352.0 1418.0 L 1351.0 1417.0 L 1351.0 1416.0 L 1358.0 1409.0 L 1358.0 1408.0 L 1360.0 1405.0 L 1360.0 1400.0 L 1361.0 1399.0 L 1360.0 1398.0 L 1360.0 1393.0 L 1359.0 1392.0 L 1358.0 1389.0 L 1354.0 1384.0 L 1353.0 1384.0 L 1351.0 1382.0 L 1350.0 1382.0 L 1347.0 1380.0 L 1344.0 1380.0 L 1343.0 1379.0 Z
    M 365.0 1332.0 L 364.0 1332.0 L 341.0 1355.0 L 341.0 1356.0 L 317.0 1380.0 L 317.0 1381.0 L 320.0 1384.0 L 321.0 1384.0 L 330.0 1375.0 L 330.0 1374.0 L 335.0 1369.0 L 336.0 1369.0 L 338.0 1367.0 L 339.0 1367.0 L 340.0 1366.0 L 343.0 1366.0 L 344.0 1365.0 L 349.0 1365.0 L 350.0 1366.0 L 354.0 1366.0 L 355.0 1367.0 L 357.0 1367.0 L 358.0 1368.0 L 359.0 1368.0 L 360.0 1369.0 L 363.0 1370.0 L 365.0 1372.0 L 366.0 1372.0 L 374.0 1380.0 L 374.0 1381.0 L 376.0 1384.0 L 376.0 1387.0 L 375.0 1388.0 L 375.0 1389.0 L 352.0 1412.0 L 352.0 1413.0 L 351.0 1414.0 L 354.0 1417.0 L 355.0 1417.0 L 377.0 1395.0 L 377.0 1394.0 L 402.0 1369.0 L 402.0 1368.0 L 399.0 1365.0 L 398.0 1365.0 L 388.0 1375.0 L 388.0 1376.0 L 379.0 1385.0 L 378.0 1385.0 L 376.0 1383.0 L 376.0 1381.0 L 374.0 1379.0 L 374.0 1378.0 L 372.0 1376.0 L 372.0 1375.0 L 365.0 1368.0 L 364.0 1368.0 L 362.0 1366.0 L 361.0 1366.0 L 356.0 1363.0 L 354.0 1363.0 L 353.0 1362.0 L 351.0 1362.0 L 350.0 1361.0 L 346.0 1361.0 L 345.0 1360.0 L 345.0 1359.0 L 366.0 1338.0 L 366.0 1337.0 L 368.0 1335.0 Z
    M 1385.0 1331.0 L 1349.0 1367.0 L 1349.0 1368.0 L 1352.0 1371.0 L 1353.0 1371.0 L 1353.0 1370.0 L 1354.0 1369.0 L 1354.0 1368.0 L 1355.0 1367.0 L 1356.0 1364.0 L 1358.0 1362.0 L 1358.0 1361.0 L 1360.0 1359.0 L 1360.0 1358.0 L 1365.0 1353.0 L 1368.0 1353.0 L 1378.0 1363.0 L 1378.0 1364.0 L 1413.0 1399.0 L 1414.0 1399.0 L 1417.0 1396.0 L 1407.0 1386.0 L 1407.0 1385.0 L 1372.0 1350.0 L 1372.0 1349.0 L 1371.0 1348.0 L 1371.0 1347.0 L 1375.0 1343.0 L 1376.0 1343.0 L 1381.0 1339.0 L 1384.0 1338.0 L 1386.0 1336.0 L 1387.0 1336.0 L 1388.0 1335.0 L 1390.0 1335.0 L 1390.0 1334.0 L 1387.0 1331.0 Z
    M 500.0 1287.0 L 500.0 1299.0 L 1247.0 1299.0 L 1247.0 1287.0 Z
    M 1081.0 1103.0 L 1083.0 1106.0 L 1083.0 1111.0 L 1082.0 1112.0 L 1082.0 1114.0 L 1080.0 1117.0 L 1080.0 1119.0 L 1079.0 1120.0 L 1079.0 1122.0 L 1078.0 1123.0 L 1078.0 1125.0 L 1076.0 1128.0 L 1076.0 1130.0 L 1075.0 1131.0 L 1075.0 1133.0 L 1074.0 1134.0 L 1074.0 1136.0 L 1073.0 1137.0 L 1073.0 1139.0 L 1071.0 1142.0 L 1071.0 1144.0 L 1070.0 1145.0 L 1070.0 1147.0 L 1069.0 1148.0 L 1069.0 1150.0 L 1068.0 1151.0 L 1068.0 1153.0 L 1066.0 1156.0 L 1066.0 1158.0 L 1065.0 1159.0 L 1065.0 1161.0 L 1064.0 1162.0 L 1064.0 1164.0 L 1063.0 1165.0 L 1063.0 1167.0 L 1061.0 1170.0 L 1061.0 1172.0 L 1060.0 1173.0 L 1060.0 1175.0 L 1059.0 1176.0 L 1059.0 1178.0 L 1058.0 1179.0 L 1058.0 1181.0 L 1056.0 1184.0 L 1056.0 1186.0 L 1055.0 1187.0 L 1055.0 1189.0 L 1054.0 1190.0 L 1054.0 1192.0 L 1053.0 1193.0 L 1053.0 1195.0 L 1051.0 1198.0 L 1051.0 1200.0 L 1050.0 1201.0 L 1050.0 1203.0 L 1049.0 1204.0 L 1049.0 1206.0 L 1048.0 1207.0 L 1048.0 1209.0 L 1047.0 1210.0 L 1047.0 1211.0 L 1046.0 1212.0 L 1046.0 1214.0 L 1045.0 1215.0 L 1055.0 1215.0 L 1055.0 1213.0 L 1056.0 1212.0 L 1056.0 1210.0 L 1057.0 1209.0 L 1057.0 1206.0 L 1058.0 1205.0 L 1058.0 1203.0 L 1059.0 1202.0 L 1059.0 1199.0 L 1060.0 1198.0 L 1060.0 1196.0 L 1061.0 1195.0 L 1061.0 1193.0 L 1062.0 1192.0 L 1062.0 1191.0 L 1063.0 1190.0 L 1064.0 1187.0 L 1068.0 1183.0 L 1071.0 1182.0 L 1073.0 1180.0 L 1075.0 1180.0 L 1076.0 1179.0 L 1078.0 1179.0 L 1079.0 1178.0 L 1082.0 1178.0 L 1083.0 1177.0 L 1093.0 1177.0 L 1094.0 1178.0 L 1098.0 1178.0 L 1099.0 1179.0 L 1101.0 1179.0 L 1102.0 1180.0 L 1104.0 1180.0 L 1105.0 1181.0 L 1106.0 1181.0 L 1107.0 1182.0 L 1110.0 1183.0 L 1112.0 1185.0 L 1113.0 1185.0 L 1122.0 1194.0 L 1122.0 1195.0 L 1125.0 1200.0 L 1125.0 1202.0 L 1126.0 1203.0 L 1126.0 1204.0 L 1129.0 1209.0 L 1129.0 1211.0 L 1130.0 1212.0 L 1131.0 1215.0 L 1141.0 1215.0 L 1139.0 1212.0 L 1139.0 1210.0 L 1138.0 1209.0 L 1138.0 1208.0 L 1135.0 1203.0 L 1135.0 1201.0 L 1134.0 1200.0 L 1134.0 1199.0 L 1131.0 1194.0 L 1131.0 1192.0 L 1130.0 1191.0 L 1130.0 1190.0 L 1127.0 1185.0 L 1127.0 1183.0 L 1126.0 1182.0 L 1126.0 1181.0 L 1123.0 1176.0 L 1123.0 1174.0 L 1122.0 1173.0 L 1122.0 1172.0 L 1119.0 1167.0 L 1119.0 1165.0 L 1118.0 1164.0 L 1118.0 1163.0 L 1115.0 1158.0 L 1115.0 1156.0 L 1114.0 1155.0 L 1114.0 1154.0 L 1113.0 1153.0 L 1113.0 1152.0 L 1110.0 1147.0 L 1110.0 1145.0 L 1109.0 1144.0 L 1109.0 1143.0 L 1106.0 1138.0 L 1106.0 1136.0 L 1105.0 1135.0 L 1105.0 1134.0 L 1102.0 1129.0 L 1102.0 1127.0 L 1101.0 1126.0 L 1101.0 1125.0 L 1098.0 1120.0 L 1098.0 1118.0 L 1097.0 1117.0 L 1097.0 1116.0 L 1094.0 1111.0 L 1094.0 1109.0 L 1093.0 1108.0 L 1093.0 1107.0 L 1092.0 1106.0 L 1091.0 1103.0 Z
    M 1084.0 1115.0 L 1086.0 1115.0 L 1088.0 1117.0 L 1088.0 1118.0 L 1089.0 1119.0 L 1089.0 1121.0 L 1090.0 1122.0 L 1090.0 1123.0 L 1093.0 1128.0 L 1093.0 1130.0 L 1094.0 1131.0 L 1094.0 1132.0 L 1097.0 1137.0 L 1097.0 1139.0 L 1098.0 1140.0 L 1098.0 1141.0 L 1101.0 1146.0 L 1101.0 1148.0 L 1102.0 1149.0 L 1102.0 1150.0 L 1105.0 1155.0 L 1105.0 1157.0 L 1106.0 1158.0 L 1106.0 1159.0 L 1109.0 1164.0 L 1109.0 1166.0 L 1110.0 1167.0 L 1110.0 1168.0 L 1111.0 1169.0 L 1111.0 1170.0 L 1114.0 1175.0 L 1114.0 1177.0 L 1117.0 1182.0 L 1117.0 1183.0 L 1116.0 1184.0 L 1115.0 1184.0 L 1113.0 1182.0 L 1112.0 1182.0 L 1107.0 1178.0 L 1106.0 1178.0 L 1105.0 1177.0 L 1104.0 1177.0 L 1099.0 1174.0 L 1097.0 1174.0 L 1096.0 1173.0 L 1093.0 1173.0 L 1092.0 1172.0 L 1077.0 1172.0 L 1076.0 1173.0 L 1074.0 1173.0 L 1069.0 1176.0 L 1068.0 1176.0 L 1067.0 1175.0 L 1067.0 1172.0 L 1068.0 1171.0 L 1068.0 1168.0 L 1069.0 1167.0 L 1069.0 1165.0 L 1070.0 1164.0 L 1070.0 1161.0 L 1071.0 1160.0 L 1071.0 1158.0 L 1072.0 1157.0 L 1072.0 1154.0 L 1073.0 1153.0 L 1073.0 1151.0 L 1074.0 1150.0 L 1074.0 1147.0 L 1075.0 1146.0 L 1075.0 1144.0 L 1076.0 1143.0 L 1076.0 1140.0 L 1077.0 1139.0 L 1077.0 1137.0 L 1078.0 1136.0 L 1078.0 1133.0 L 1079.0 1132.0 L 1079.0 1130.0 L 1080.0 1129.0 L 1080.0 1126.0 L 1081.0 1125.0 L 1081.0 1123.0 L 1082.0 1122.0 L 1082.0 1119.0 L 1083.0 1118.0 L 1083.0 1116.0 Z
    M 925.0 1103.0 L 925.0 1215.0 L 934.0 1215.0 L 934.0 1103.0 Z
    M 833.0 1103.0 L 833.0 1215.0 L 911.0 1215.0 L 911.0 1206.0 L 909.0 1206.0 L 908.0 1207.0 L 904.0 1207.0 L 903.0 1208.0 L 900.0 1208.0 L 899.0 1209.0 L 894.0 1209.0 L 893.0 1210.0 L 887.0 1210.0 L 886.0 1211.0 L 879.0 1211.0 L 878.0 1212.0 L 868.0 1212.0 L 867.0 1213.0 L 845.0 1213.0 L 842.0 1210.0 L 842.0 1103.0 Z
    M 696.0 1103.0 L 696.0 1104.0 L 698.0 1106.0 L 698.0 1107.0 L 700.0 1109.0 L 700.0 1110.0 L 703.0 1113.0 L 703.0 1114.0 L 705.0 1116.0 L 705.0 1117.0 L 707.0 1119.0 L 707.0 1120.0 L 710.0 1123.0 L 710.0 1124.0 L 712.0 1126.0 L 712.0 1127.0 L 714.0 1129.0 L 714.0 1130.0 L 717.0 1133.0 L 717.0 1134.0 L 719.0 1136.0 L 719.0 1137.0 L 721.0 1139.0 L 721.0 1140.0 L 724.0 1143.0 L 724.0 1144.0 L 726.0 1146.0 L 726.0 1147.0 L 728.0 1149.0 L 728.0 1150.0 L 730.0 1152.0 L 730.0 1153.0 L 733.0 1156.0 L 733.0 1157.0 L 735.0 1159.0 L 735.0 1160.0 L 736.0 1161.0 L 736.0 1163.0 L 737.0 1164.0 L 737.0 1215.0 L 746.0 1215.0 L 746.0 1165.0 L 747.0 1164.0 L 747.0 1162.0 L 748.0 1161.0 L 749.0 1158.0 L 753.0 1153.0 L 753.0 1152.0 L 756.0 1149.0 L 756.0 1148.0 L 758.0 1146.0 L 758.0 1145.0 L 760.0 1143.0 L 760.0 1142.0 L 763.0 1139.0 L 763.0 1138.0 L 765.0 1136.0 L 765.0 1135.0 L 767.0 1133.0 L 767.0 1132.0 L 770.0 1129.0 L 770.0 1128.0 L 772.0 1126.0 L 772.0 1125.0 L 774.0 1123.0 L 774.0 1122.0 L 777.0 1119.0 L 777.0 1118.0 L 779.0 1116.0 L 779.0 1115.0 L 781.0 1113.0 L 781.0 1112.0 L 783.0 1110.0 L 783.0 1109.0 L 786.0 1106.0 L 787.0 1103.0 L 778.0 1103.0 L 778.0 1104.0 L 777.0 1105.0 L 777.0 1106.0 L 775.0 1108.0 L 775.0 1109.0 L 774.0 1110.0 L 773.0 1113.0 L 771.0 1115.0 L 771.0 1116.0 L 770.0 1117.0 L 769.0 1120.0 L 767.0 1122.0 L 767.0 1123.0 L 766.0 1124.0 L 765.0 1127.0 L 763.0 1129.0 L 763.0 1130.0 L 762.0 1131.0 L 761.0 1134.0 L 759.0 1136.0 L 759.0 1137.0 L 758.0 1138.0 L 757.0 1141.0 L 755.0 1143.0 L 755.0 1144.0 L 754.0 1145.0 L 753.0 1148.0 L 751.0 1150.0 L 751.0 1151.0 L 750.0 1152.0 L 749.0 1155.0 L 745.0 1159.0 L 744.0 1159.0 L 741.0 1156.0 L 741.0 1155.0 L 739.0 1153.0 L 739.0 1152.0 L 737.0 1150.0 L 737.0 1149.0 L 734.0 1146.0 L 734.0 1145.0 L 732.0 1143.0 L 732.0 1142.0 L 730.0 1140.0 L 730.0 1139.0 L 728.0 1137.0 L 728.0 1136.0 L 726.0 1134.0 L 726.0 1133.0 L 723.0 1130.0 L 723.0 1129.0 L 721.0 1127.0 L 721.0 1126.0 L 719.0 1124.0 L 719.0 1123.0 L 717.0 1121.0 L 717.0 1120.0 L 715.0 1118.0 L 715.0 1117.0 L 712.0 1114.0 L 712.0 1113.0 L 710.0 1111.0 L 710.0 1110.0 L 708.0 1108.0 L 708.0 1107.0 L 706.0 1105.0 L 706.0 1104.0 L 705.0 1103.0 Z
    M 616.0 1103.0 L 615.0 1104.0 L 615.0 1215.0 L 676.0 1215.0 L 677.0 1214.0 L 680.0 1214.0 L 681.0 1213.0 L 683.0 1213.0 L 684.0 1212.0 L 685.0 1212.0 L 686.0 1211.0 L 689.0 1210.0 L 696.0 1203.0 L 696.0 1202.0 L 698.0 1200.0 L 698.0 1199.0 L 700.0 1196.0 L 700.0 1194.0 L 701.0 1193.0 L 701.0 1189.0 L 702.0 1188.0 L 702.0 1178.0 L 701.0 1177.0 L 701.0 1174.0 L 700.0 1173.0 L 700.0 1171.0 L 699.0 1170.0 L 699.0 1169.0 L 698.0 1168.0 L 697.0 1165.0 L 694.0 1162.0 L 694.0 1161.0 L 693.0 1160.0 L 692.0 1160.0 L 689.0 1157.0 L 688.0 1157.0 L 686.0 1155.0 L 685.0 1155.0 L 684.0 1154.0 L 682.0 1154.0 L 681.0 1153.0 L 678.0 1153.0 L 677.0 1152.0 L 677.0 1151.0 L 679.0 1149.0 L 680.0 1149.0 L 681.0 1148.0 L 682.0 1148.0 L 684.0 1146.0 L 685.0 1146.0 L 690.0 1141.0 L 690.0 1140.0 L 693.0 1135.0 L 693.0 1133.0 L 694.0 1132.0 L 694.0 1122.0 L 693.0 1121.0 L 693.0 1119.0 L 692.0 1118.0 L 692.0 1116.0 L 690.0 1114.0 L 690.0 1113.0 L 685.0 1108.0 L 684.0 1108.0 L 679.0 1105.0 L 677.0 1105.0 L 676.0 1104.0 L 672.0 1104.0 L 671.0 1103.0 Z
    M 624.0 1157.0 L 628.0 1153.0 L 664.0 1153.0 L 665.0 1154.0 L 669.0 1154.0 L 670.0 1155.0 L 673.0 1155.0 L 674.0 1156.0 L 675.0 1156.0 L 676.0 1157.0 L 679.0 1158.0 L 687.0 1166.0 L 687.0 1167.0 L 689.0 1169.0 L 689.0 1171.0 L 690.0 1172.0 L 690.0 1174.0 L 691.0 1175.0 L 691.0 1179.0 L 692.0 1180.0 L 692.0 1187.0 L 691.0 1188.0 L 691.0 1192.0 L 690.0 1193.0 L 690.0 1195.0 L 689.0 1196.0 L 689.0 1197.0 L 688.0 1198.0 L 687.0 1201.0 L 680.0 1208.0 L 679.0 1208.0 L 674.0 1211.0 L 672.0 1211.0 L 671.0 1212.0 L 668.0 1212.0 L 667.0 1213.0 L 627.0 1213.0 L 625.0 1211.0 L 625.0 1210.0 L 624.0 1209.0 Z
    M 625.0 1107.0 L 628.0 1105.0 L 664.0 1105.0 L 665.0 1106.0 L 669.0 1106.0 L 670.0 1107.0 L 671.0 1107.0 L 672.0 1108.0 L 675.0 1109.0 L 677.0 1111.0 L 678.0 1111.0 L 681.0 1114.0 L 681.0 1115.0 L 683.0 1117.0 L 683.0 1118.0 L 684.0 1119.0 L 684.0 1121.0 L 685.0 1122.0 L 685.0 1133.0 L 684.0 1134.0 L 684.0 1136.0 L 683.0 1137.0 L 682.0 1140.0 L 675.0 1147.0 L 674.0 1147.0 L 671.0 1149.0 L 669.0 1149.0 L 668.0 1150.0 L 665.0 1150.0 L 664.0 1151.0 L 628.0 1151.0 L 627.0 1150.0 L 626.0 1150.0 L 624.0 1147.0 L 624.0 1109.0 L 625.0 1108.0 Z
    M 976.0 1103.0 L 970.0 1106.0 L 968.0 1106.0 L 961.0 1111.0 L 960.0 1111.0 L 954.0 1118.0 L 953.0 1122.0 L 952.0 1123.0 L 952.0 1126.0 L 951.0 1127.0 L 951.0 1136.0 L 952.0 1137.0 L 952.0 1140.0 L 954.0 1144.0 L 959.0 1150.0 L 968.0 1155.0 L 974.0 1156.0 L 975.0 1157.0 L 978.0 1157.0 L 979.0 1158.0 L 988.0 1159.0 L 989.0 1160.0 L 994.0 1160.0 L 995.0 1161.0 L 1006.0 1162.0 L 1007.0 1163.0 L 1010.0 1163.0 L 1011.0 1164.0 L 1013.0 1164.0 L 1014.0 1165.0 L 1016.0 1165.0 L 1017.0 1166.0 L 1021.0 1167.0 L 1030.0 1175.0 L 1032.0 1179.0 L 1032.0 1182.0 L 1033.0 1183.0 L 1033.0 1192.0 L 1032.0 1193.0 L 1032.0 1196.0 L 1028.0 1203.0 L 1024.0 1207.0 L 1023.0 1207.0 L 1018.0 1211.0 L 1014.0 1212.0 L 1013.0 1213.0 L 1011.0 1213.0 L 1010.0 1214.0 L 1008.0 1214.0 L 1007.0 1215.0 L 1001.0 1215.0 L 1000.0 1216.0 L 992.0 1216.0 L 991.0 1215.0 L 985.0 1215.0 L 984.0 1214.0 L 976.0 1212.0 L 969.0 1208.0 L 960.0 1199.0 L 958.0 1195.0 L 958.0 1187.0 L 962.0 1183.0 L 960.0 1182.0 L 955.0 1182.0 L 951.0 1185.0 L 950.0 1187.0 L 950.0 1190.0 L 949.0 1191.0 L 949.0 1193.0 L 950.0 1194.0 L 950.0 1198.0 L 952.0 1202.0 L 958.0 1208.0 L 967.0 1213.0 L 969.0 1213.0 L 970.0 1214.0 L 972.0 1214.0 L 976.0 1216.0 L 981.0 1216.0 L 982.0 1217.0 L 993.0 1217.0 L 994.0 1218.0 L 998.0 1218.0 L 999.0 1217.0 L 1007.0 1217.0 L 1008.0 1216.0 L 1012.0 1216.0 L 1013.0 1215.0 L 1018.0 1214.0 L 1021.0 1212.0 L 1023.0 1212.0 L 1025.0 1210.0 L 1028.0 1209.0 L 1036.0 1201.0 L 1040.0 1192.0 L 1040.0 1188.0 L 1041.0 1187.0 L 1041.0 1181.0 L 1040.0 1180.0 L 1040.0 1176.0 L 1039.0 1175.0 L 1039.0 1173.0 L 1035.0 1166.0 L 1032.0 1163.0 L 1031.0 1163.0 L 1029.0 1161.0 L 1022.0 1157.0 L 1020.0 1157.0 L 1016.0 1155.0 L 1013.0 1155.0 L 1009.0 1153.0 L 1005.0 1153.0 L 1004.0 1152.0 L 1000.0 1152.0 L 999.0 1151.0 L 994.0 1151.0 L 993.0 1150.0 L 983.0 1149.0 L 982.0 1148.0 L 979.0 1148.0 L 978.0 1147.0 L 972.0 1146.0 L 966.0 1143.0 L 962.0 1140.0 L 962.0 1139.0 L 959.0 1135.0 L 959.0 1124.0 L 960.0 1123.0 L 961.0 1118.0 L 969.0 1109.0 L 970.0 1109.0 L 974.0 1106.0 L 976.0 1106.0 L 980.0 1104.0 L 983.0 1104.0 L 984.0 1103.0 L 1003.0 1103.0 L 1004.0 1104.0 L 1007.0 1104.0 L 1008.0 1105.0 L 1013.0 1106.0 L 1022.0 1111.0 L 1029.0 1118.0 L 1033.0 1127.0 L 1034.0 1127.0 L 1037.0 1123.0 L 1037.0 1117.0 L 1035.0 1113.0 L 1031.0 1109.0 L 1023.0 1105.0 L 1021.0 1105.0 L 1017.0 1103.0 L 1014.0 1103.0 L 1013.0 1102.0 L 1007.0 1102.0 L 1006.0 1101.0 L 986.0 1101.0 L 985.0 1102.0 L 980.0 1102.0 L 979.0 1103.0 Z
    M 687.0 587.0 L 688.0 630.0 L 695.0 653.0 L 713.0 680.0 L 721.0 747.0 L 731.0 768.0 L 747.0 780.0 L 773.0 777.0 L 792.0 761.0 L 828.0 695.0 L 886.0 670.0 L 898.0 681.0 L 901.0 728.0 L 913.0 764.0 L 931.0 780.0 L 955.0 778.0 L 981.0 755.0 L 1013.0 695.0 L 1087.0 664.0 L 1086.0 795.0 L 1062.0 893.0 L 1057.0 988.0 L 1069.0 1046.0 L 1079.0 1067.0 L 1089.0 1073.0 L 1106.0 1067.0 L 1116.0 1037.0 L 1112.0 770.0 L 1157.0 678.0 L 1199.0 623.0 L 1213.0 619.0 L 1219.0 629.0 L 1216.0 698.0 L 1207.0 723.0 L 1145.0 808.0 L 1142.0 829.0 L 1150.0 837.0 L 1171.0 834.0 L 1188.0 821.0 L 1212.0 781.0 L 1230.0 728.0 L 1307.0 670.0 L 1320.0 675.0 L 1383.0 670.0 L 1410.0 678.0 L 1404.0 706.0 L 1388.0 736.0 L 1294.0 795.0 L 1237.0 847.0 L 1213.0 892.0 L 1214.0 905.0 L 1230.0 913.0 L 1248.0 913.0 L 1273.0 903.0 L 1317.0 868.0 L 1370.0 805.0 L 1409.0 745.0 L 1528.0 693.0 L 1519.0 686.0 L 1519.0 678.0 L 1506.0 679.0 L 1425.0 715.0 L 1427.0 679.0 L 1414.0 659.0 L 1380.0 649.0 L 1326.0 651.0 L 1351.0 619.0 L 1401.0 574.0 L 1401.0 593.0 L 1424.0 598.0 L 1449.0 541.0 L 1437.0 524.0 L 1418.0 529.0 L 1386.0 552.0 L 1325.0 612.0 L 1296.0 654.0 L 1243.0 690.0 L 1244.0 643.0 L 1236.0 618.0 L 1215.0 605.0 L 1192.0 609.0 L 1156.0 647.0 L 1113.0 723.0 L 1114.0 546.0 L 1109.0 531.0 L 1104.0 538.0 L 1099.0 529.0 L 1094.0 538.0 L 1088.0 633.0 L 1027.0 672.0 L 1021.0 670.0 L 1035.0 614.0 L 1028.0 552.0 L 1003.0 517.0 L 968.0 500.0 L 927.0 503.0 L 892.0 533.0 L 871.0 591.0 L 879.0 651.0 L 843.0 672.0 L 837.0 669.0 L 850.0 618.0 L 848.0 566.0 L 832.0 531.0 L 808.0 510.0 L 780.0 499.0 L 736.0 506.0 L 705.0 537.0 Z
    M 1076.0 1040.0 L 1077.0 1040.0 L 1080.0 1043.0 L 1080.0 1046.0 L 1079.0 1047.0 L 1078.0 1047.0 L 1077.0 1046.0 L 1077.0 1045.0 L 1075.0 1042.0 L 1075.0 1041.0 Z
    M 1067.0 994.0 L 1068.0 994.0 L 1069.0 995.0 L 1069.0 1000.0 L 1070.0 1001.0 L 1070.0 1006.0 L 1071.0 1007.0 L 1071.0 1013.0 L 1072.0 1014.0 L 1072.0 1017.0 L 1071.0 1018.0 L 1070.0 1018.0 L 1069.0 1017.0 L 1069.0 1016.0 L 1068.0 1015.0 L 1068.0 1012.0 L 1067.0 1011.0 L 1067.0 1003.0 L 1066.0 1002.0 L 1066.0 995.0 Z
    M 1087.0 852.0 L 1088.0 852.0 L 1089.0 853.0 L 1089.0 865.0 L 1090.0 866.0 L 1090.0 893.0 L 1091.0 894.0 L 1091.0 932.0 L 1092.0 933.0 L 1092.0 1017.0 L 1091.0 1018.0 L 1091.0 1041.0 L 1090.0 1042.0 L 1090.0 1046.0 L 1089.0 1047.0 L 1088.0 1047.0 L 1087.0 1046.0 L 1087.0 1045.0 L 1086.0 1044.0 L 1086.0 1043.0 L 1083.0 1038.0 L 1083.0 1036.0 L 1082.0 1035.0 L 1082.0 1033.0 L 1080.0 1030.0 L 1080.0 1027.0 L 1079.0 1026.0 L 1079.0 1024.0 L 1078.0 1023.0 L 1078.0 1020.0 L 1077.0 1019.0 L 1077.0 1015.0 L 1076.0 1014.0 L 1076.0 1009.0 L 1075.0 1008.0 L 1075.0 1002.0 L 1074.0 1001.0 L 1074.0 992.0 L 1073.0 991.0 L 1073.0 973.0 L 1072.0 972.0 L 1072.0 964.0 L 1073.0 963.0 L 1073.0 936.0 L 1074.0 935.0 L 1074.0 922.0 L 1075.0 921.0 L 1075.0 912.0 L 1076.0 911.0 L 1076.0 903.0 L 1077.0 902.0 L 1077.0 896.0 L 1078.0 895.0 L 1078.0 889.0 L 1079.0 888.0 L 1079.0 884.0 L 1080.0 883.0 L 1080.0 878.0 L 1081.0 877.0 L 1081.0 874.0 L 1082.0 873.0 L 1082.0 869.0 L 1083.0 868.0 L 1083.0 865.0 L 1084.0 864.0 L 1084.0 861.0 L 1085.0 860.0 L 1085.0 857.0 L 1086.0 856.0 L 1086.0 853.0 Z
    M 1285.0 819.0 L 1285.0 820.0 L 1280.0 825.0 L 1279.0 825.0 L 1271.0 833.0 L 1270.0 833.0 L 1266.0 837.0 L 1265.0 837.0 L 1264.0 838.0 L 1263.0 838.0 L 1262.0 837.0 L 1262.0 836.0 L 1273.0 825.0 L 1274.0 825.0 L 1278.0 821.0 L 1279.0 821.0 L 1281.0 819.0 L 1282.0 819.0 L 1283.0 818.0 L 1284.0 818.0 Z
    M 1369.0 769.0 L 1369.0 771.0 L 1368.0 772.0 L 1367.0 775.0 L 1365.0 777.0 L 1365.0 778.0 L 1363.0 780.0 L 1363.0 781.0 L 1361.0 783.0 L 1361.0 784.0 L 1359.0 786.0 L 1359.0 787.0 L 1357.0 789.0 L 1357.0 790.0 L 1354.0 793.0 L 1354.0 794.0 L 1351.0 797.0 L 1351.0 798.0 L 1348.0 801.0 L 1348.0 802.0 L 1344.0 806.0 L 1344.0 807.0 L 1340.0 811.0 L 1340.0 812.0 L 1335.0 817.0 L 1335.0 818.0 L 1329.0 824.0 L 1329.0 825.0 L 1321.0 833.0 L 1321.0 834.0 L 1307.0 848.0 L 1307.0 849.0 L 1297.0 859.0 L 1296.0 859.0 L 1283.0 872.0 L 1282.0 872.0 L 1276.0 878.0 L 1275.0 878.0 L 1271.0 882.0 L 1270.0 882.0 L 1263.0 888.0 L 1262.0 888.0 L 1257.0 892.0 L 1254.0 893.0 L 1252.0 895.0 L 1251.0 895.0 L 1250.0 896.0 L 1249.0 896.0 L 1244.0 899.0 L 1242.0 899.0 L 1241.0 900.0 L 1239.0 900.0 L 1238.0 901.0 L 1229.0 901.0 L 1228.0 900.0 L 1226.0 900.0 L 1224.0 898.0 L 1224.0 895.0 L 1225.0 894.0 L 1225.0 892.0 L 1226.0 891.0 L 1226.0 890.0 L 1227.0 889.0 L 1227.0 888.0 L 1228.0 887.0 L 1228.0 886.0 L 1229.0 885.0 L 1230.0 882.0 L 1232.0 880.0 L 1233.0 877.0 L 1235.0 875.0 L 1235.0 874.0 L 1237.0 872.0 L 1237.0 871.0 L 1240.0 868.0 L 1240.0 867.0 L 1242.0 865.0 L 1227.0 880.0 L 1227.0 881.0 L 1226.0 882.0 L 1225.0 882.0 L 1224.0 881.0 L 1224.0 880.0 L 1225.0 879.0 L 1226.0 876.0 L 1228.0 874.0 L 1229.0 871.0 L 1231.0 869.0 L 1231.0 868.0 L 1233.0 866.0 L 1233.0 865.0 L 1236.0 862.0 L 1236.0 861.0 L 1240.0 857.0 L 1240.0 856.0 L 1250.0 846.0 L 1251.0 846.0 L 1254.0 843.0 L 1255.0 843.0 L 1256.0 842.0 L 1257.0 842.0 L 1258.0 843.0 L 1257.0 846.0 L 1255.0 848.0 L 1255.0 849.0 L 1253.0 852.0 L 1267.0 838.0 L 1268.0 838.0 L 1273.0 833.0 L 1274.0 833.0 L 1283.0 825.0 L 1284.0 825.0 L 1287.0 822.0 L 1288.0 822.0 L 1290.0 820.0 L 1291.0 820.0 L 1294.0 817.0 L 1295.0 817.0 L 1302.0 811.0 L 1303.0 811.0 L 1305.0 809.0 L 1306.0 809.0 L 1313.0 803.0 L 1314.0 803.0 L 1316.0 801.0 L 1317.0 801.0 L 1320.0 798.0 L 1321.0 798.0 L 1323.0 796.0 L 1324.0 796.0 L 1326.0 794.0 L 1327.0 794.0 L 1332.0 790.0 L 1335.0 789.0 L 1337.0 787.0 L 1338.0 787.0 L 1340.0 785.0 L 1341.0 785.0 L 1343.0 783.0 L 1344.0 783.0 L 1346.0 781.0 L 1347.0 781.0 L 1352.0 777.0 L 1355.0 776.0 L 1360.0 772.0 L 1363.0 771.0 L 1365.0 769.0 L 1366.0 769.0 L 1367.0 768.0 L 1368.0 768.0 Z
    M 987.0 701.0 L 988.0 702.0 L 988.0 703.0 L 987.0 704.0 L 987.0 707.0 L 985.0 710.0 L 985.0 712.0 L 984.0 713.0 L 984.0 714.0 L 983.0 715.0 L 982.0 718.0 L 980.0 720.0 L 980.0 721.0 L 979.0 722.0 L 978.0 725.0 L 976.0 727.0 L 975.0 730.0 L 972.0 733.0 L 972.0 734.0 L 970.0 736.0 L 970.0 737.0 L 967.0 740.0 L 967.0 741.0 L 964.0 744.0 L 964.0 745.0 L 959.0 750.0 L 959.0 751.0 L 953.0 757.0 L 952.0 757.0 L 948.0 761.0 L 947.0 761.0 L 944.0 763.0 L 938.0 763.0 L 934.0 759.0 L 934.0 758.0 L 932.0 755.0 L 932.0 753.0 L 931.0 752.0 L 931.0 749.0 L 930.0 748.0 L 930.0 745.0 L 929.0 744.0 L 929.0 741.0 L 928.0 740.0 L 928.0 735.0 L 927.0 734.0 L 927.0 729.0 L 926.0 728.0 L 926.0 722.0 L 925.0 721.0 L 925.0 714.0 L 924.0 713.0 L 924.0 701.0 L 923.0 700.0 L 923.0 698.0 L 924.0 697.0 L 926.0 697.0 L 927.0 698.0 L 929.0 698.0 L 930.0 699.0 L 933.0 699.0 L 934.0 700.0 L 938.0 700.0 L 939.0 701.0 L 945.0 701.0 L 946.0 702.0 L 973.0 702.0 L 974.0 701.0 Z
    M 802.0 701.0 L 803.0 702.0 L 803.0 705.0 L 802.0 706.0 L 802.0 708.0 L 801.0 709.0 L 801.0 711.0 L 800.0 712.0 L 800.0 713.0 L 799.0 714.0 L 799.0 715.0 L 798.0 716.0 L 797.0 719.0 L 795.0 721.0 L 794.0 724.0 L 792.0 726.0 L 791.0 729.0 L 789.0 731.0 L 789.0 732.0 L 787.0 734.0 L 787.0 735.0 L 784.0 738.0 L 784.0 739.0 L 781.0 742.0 L 781.0 743.0 L 777.0 747.0 L 777.0 748.0 L 766.0 759.0 L 765.0 759.0 L 763.0 761.0 L 762.0 761.0 L 759.0 763.0 L 754.0 763.0 L 753.0 762.0 L 752.0 762.0 L 748.0 756.0 L 748.0 754.0 L 747.0 753.0 L 747.0 751.0 L 746.0 750.0 L 746.0 747.0 L 745.0 746.0 L 745.0 743.0 L 744.0 742.0 L 744.0 738.0 L 743.0 737.0 L 743.0 733.0 L 742.0 732.0 L 742.0 726.0 L 741.0 725.0 L 741.0 718.0 L 740.0 717.0 L 740.0 708.0 L 739.0 707.0 L 739.0 698.0 L 740.0 697.0 L 742.0 697.0 L 743.0 698.0 L 745.0 698.0 L 746.0 699.0 L 749.0 699.0 L 750.0 700.0 L 754.0 700.0 L 755.0 701.0 L 761.0 701.0 L 762.0 702.0 L 789.0 702.0 L 790.0 701.0 Z
    M 941.0 516.0 L 944.0 516.0 L 945.0 515.0 L 951.0 515.0 L 952.0 514.0 L 965.0 515.0 L 966.0 516.0 L 972.0 517.0 L 983.0 523.0 L 995.0 535.0 L 995.0 536.0 L 1001.0 544.0 L 1007.0 556.0 L 1007.0 558.0 L 1010.0 564.0 L 1010.0 567.0 L 1011.0 568.0 L 1011.0 571.0 L 1012.0 572.0 L 1012.0 577.0 L 1013.0 578.0 L 1013.0 615.0 L 1012.0 616.0 L 1012.0 630.0 L 1011.0 631.0 L 1011.0 640.0 L 1010.0 641.0 L 1010.0 647.0 L 1009.0 648.0 L 1009.0 652.0 L 1008.0 653.0 L 1008.0 656.0 L 1006.0 660.0 L 1006.0 663.0 L 1004.0 666.0 L 1004.0 668.0 L 1000.0 676.0 L 996.0 681.0 L 992.0 682.0 L 991.0 683.0 L 981.0 684.0 L 980.0 685.0 L 968.0 685.0 L 967.0 686.0 L 949.0 686.0 L 948.0 685.0 L 938.0 685.0 L 937.0 684.0 L 933.0 684.0 L 932.0 683.0 L 927.0 682.0 L 923.0 679.0 L 923.0 672.0 L 924.0 671.0 L 924.0 659.0 L 925.0 658.0 L 926.0 646.0 L 927.0 645.0 L 927.0 641.0 L 928.0 640.0 L 929.0 633.0 L 930.0 632.0 L 932.0 624.0 L 934.0 621.0 L 934.0 619.0 L 942.0 603.0 L 972.0 573.0 L 972.0 572.0 L 974.0 570.0 L 974.0 568.0 L 970.0 565.0 L 965.0 565.0 L 962.0 562.0 L 960.0 562.0 L 959.0 561.0 L 950.0 561.0 L 949.0 562.0 L 946.0 562.0 L 938.0 566.0 L 929.0 575.0 L 929.0 576.0 L 925.0 581.0 L 923.0 586.0 L 921.0 588.0 L 917.0 596.0 L 917.0 598.0 L 914.0 603.0 L 914.0 605.0 L 912.0 608.0 L 912.0 610.0 L 911.0 611.0 L 911.0 613.0 L 910.0 614.0 L 910.0 616.0 L 909.0 617.0 L 909.0 619.0 L 907.0 623.0 L 907.0 626.0 L 906.0 627.0 L 905.0 632.0 L 902.0 635.0 L 901.0 635.0 L 897.0 638.0 L 896.0 638.0 L 894.0 635.0 L 894.0 631.0 L 893.0 630.0 L 893.0 623.0 L 892.0 622.0 L 892.0 610.0 L 891.0 609.0 L 891.0 601.0 L 892.0 600.0 L 892.0 591.0 L 893.0 590.0 L 894.0 581.0 L 895.0 580.0 L 895.0 577.0 L 897.0 573.0 L 897.0 570.0 L 898.0 569.0 L 899.0 564.0 L 901.0 561.0 L 901.0 559.0 L 907.0 547.0 L 909.0 545.0 L 913.0 538.0 L 918.0 533.0 L 918.0 532.0 L 929.0 522.0 Z
    M 760.0 515.0 L 767.0 515.0 L 768.0 514.0 L 773.0 514.0 L 774.0 515.0 L 781.0 515.0 L 782.0 516.0 L 785.0 516.0 L 788.0 518.0 L 790.0 518.0 L 794.0 520.0 L 799.0 524.0 L 800.0 524.0 L 809.0 533.0 L 809.0 534.0 L 814.0 540.0 L 815.0 543.0 L 817.0 545.0 L 823.0 557.0 L 823.0 559.0 L 824.0 560.0 L 824.0 562.0 L 826.0 566.0 L 827.0 574.0 L 828.0 575.0 L 828.0 623.0 L 827.0 624.0 L 827.0 635.0 L 826.0 636.0 L 826.0 644.0 L 825.0 645.0 L 825.0 650.0 L 824.0 651.0 L 824.0 654.0 L 823.0 655.0 L 823.0 658.0 L 822.0 659.0 L 820.0 667.0 L 815.0 677.0 L 812.0 681.0 L 810.0 681.0 L 806.0 683.0 L 803.0 683.0 L 802.0 684.0 L 797.0 684.0 L 796.0 685.0 L 784.0 685.0 L 783.0 686.0 L 764.0 686.0 L 763.0 685.0 L 753.0 685.0 L 752.0 684.0 L 748.0 684.0 L 747.0 683.0 L 745.0 683.0 L 741.0 681.0 L 739.0 679.0 L 739.0 664.0 L 740.0 663.0 L 740.0 655.0 L 741.0 654.0 L 741.0 649.0 L 742.0 648.0 L 742.0 644.0 L 743.0 643.0 L 744.0 635.0 L 745.0 634.0 L 745.0 632.0 L 746.0 631.0 L 746.0 629.0 L 747.0 628.0 L 749.0 620.0 L 757.0 604.0 L 762.0 599.0 L 762.0 598.0 L 789.0 571.0 L 789.0 567.0 L 788.0 566.0 L 786.0 566.0 L 785.0 565.0 L 781.0 565.0 L 779.0 563.0 L 775.0 562.0 L 774.0 561.0 L 766.0 561.0 L 765.0 562.0 L 759.0 563.0 L 755.0 565.0 L 752.0 568.0 L 751.0 568.0 L 747.0 572.0 L 747.0 573.0 L 744.0 576.0 L 744.0 577.0 L 740.0 582.0 L 739.0 585.0 L 737.0 587.0 L 732.0 597.0 L 732.0 599.0 L 729.0 604.0 L 727.0 612.0 L 725.0 615.0 L 725.0 618.0 L 724.0 619.0 L 724.0 621.0 L 723.0 622.0 L 723.0 624.0 L 721.0 628.0 L 721.0 631.0 L 720.0 632.0 L 720.0 635.0 L 719.0 636.0 L 719.0 639.0 L 718.0 640.0 L 718.0 643.0 L 717.0 644.0 L 717.0 648.0 L 716.0 649.0 L 715.0 649.0 L 713.0 647.0 L 712.0 643.0 L 711.0 642.0 L 710.0 634.0 L 709.0 633.0 L 709.0 627.0 L 708.0 626.0 L 708.0 617.0 L 707.0 616.0 L 707.0 595.0 L 708.0 594.0 L 708.0 588.0 L 709.0 587.0 L 709.0 583.0 L 710.0 582.0 L 711.0 575.0 L 712.0 574.0 L 712.0 572.0 L 713.0 571.0 L 715.0 563.0 L 717.0 560.0 L 717.0 558.0 L 722.0 548.0 L 724.0 546.0 L 725.0 543.0 L 731.0 536.0 L 731.0 535.0 L 743.0 523.0 L 749.0 520.0 L 751.0 518.0 L 753.0 518.0 L 754.0 517.0 L 756.0 517.0 Z
    M 614.0 263.0 L 584.0 260.0 L 551.0 277.0 L 515.0 322.0 L 481.0 388.0 L 453.0 380.0 L 420.0 380.0 L 388.0 388.0 L 352.0 407.0 L 307.0 450.0 L 276.0 504.0 L 264.0 545.0 L 261.0 582.0 L 267.0 621.0 L 282.0 654.0 L 303.0 680.0 L 337.0 703.0 L 367.0 711.0 L 409.0 708.0 L 376.0 947.0 L 287.0 980.0 L 249.0 1012.0 L 236.0 1037.0 L 234.0 1066.0 L 240.0 1088.0 L 261.0 1115.0 L 277.0 1124.0 L 305.0 1126.0 L 320.0 1122.0 L 351.0 1097.0 L 377.0 1045.0 L 397.0 965.0 L 401.0 963.0 L 459.0 965.0 L 661.0 1019.0 L 731.0 1027.0 L 796.0 1017.0 L 822.0 1005.0 L 858.0 976.0 L 882.0 939.0 L 889.0 890.0 L 884.0 866.0 L 873.0 847.0 L 834.0 819.0 L 803.0 811.0 L 773.0 811.0 L 749.0 818.0 L 734.0 828.0 L 712.0 862.0 L 710.0 886.0 L 715.0 907.0 L 738.0 939.0 L 760.0 946.0 L 778.0 943.0 L 796.0 933.0 L 806.0 918.0 L 807.0 900.0 L 798.0 919.0 L 796.0 898.0 L 764.0 929.0 L 753.0 927.0 L 740.0 908.0 L 735.0 892.0 L 737.0 865.0 L 747.0 847.0 L 769.0 830.0 L 796.0 826.0 L 832.0 837.0 L 857.0 862.0 L 865.0 893.0 L 862.0 923.0 L 848.0 953.0 L 822.0 981.0 L 785.0 1002.0 L 754.0 1010.0 L 697.0 1010.0 L 492.0 955.0 L 401.0 947.0 L 435.0 700.0 L 486.0 672.0 L 572.0 598.0 L 614.0 539.0 L 649.0 457.0 L 661.0 392.0 L 658.0 335.0 L 639.0 286.0 Z
    M 247.0 1066.0 L 248.0 1066.0 L 249.0 1067.0 L 249.0 1070.0 L 250.0 1071.0 L 250.0 1072.0 L 251.0 1073.0 L 251.0 1075.0 L 254.0 1080.0 L 254.0 1084.0 L 256.0 1086.0 L 256.0 1089.0 L 257.0 1090.0 L 257.0 1093.0 L 256.0 1094.0 L 255.0 1094.0 L 253.0 1092.0 L 253.0 1091.0 L 252.0 1090.0 L 252.0 1089.0 L 249.0 1084.0 L 249.0 1082.0 L 248.0 1081.0 L 248.0 1079.0 L 247.0 1078.0 L 247.0 1075.0 L 246.0 1074.0 L 246.0 1067.0 Z
    M 641.0 1011.0 L 642.0 1010.0 L 644.0 1010.0 L 645.0 1011.0 L 649.0 1011.0 L 650.0 1012.0 L 653.0 1012.0 L 654.0 1013.0 L 657.0 1013.0 L 658.0 1014.0 L 662.0 1014.0 L 663.0 1015.0 L 666.0 1015.0 L 667.0 1016.0 L 672.0 1016.0 L 673.0 1017.0 L 676.0 1017.0 L 677.0 1018.0 L 682.0 1018.0 L 683.0 1019.0 L 683.0 1020.0 L 682.0 1021.0 L 676.0 1021.0 L 675.0 1020.0 L 670.0 1020.0 L 669.0 1019.0 L 665.0 1019.0 L 664.0 1018.0 L 660.0 1018.0 L 659.0 1017.0 L 656.0 1017.0 L 655.0 1016.0 L 653.0 1016.0 L 652.0 1015.0 L 649.0 1015.0 L 648.0 1014.0 L 645.0 1014.0 L 644.0 1013.0 L 642.0 1013.0 L 641.0 1012.0 Z
    M 370.0 969.0 L 371.0 970.0 L 371.0 978.0 L 370.0 979.0 L 370.0 984.0 L 369.0 985.0 L 369.0 989.0 L 368.0 990.0 L 368.0 993.0 L 367.0 994.0 L 367.0 997.0 L 366.0 998.0 L 366.0 1001.0 L 365.0 1002.0 L 365.0 1005.0 L 364.0 1006.0 L 364.0 1008.0 L 363.0 1009.0 L 363.0 1011.0 L 362.0 1012.0 L 362.0 1015.0 L 361.0 1016.0 L 361.0 1018.0 L 360.0 1019.0 L 360.0 1021.0 L 359.0 1022.0 L 359.0 1024.0 L 358.0 1025.0 L 358.0 1027.0 L 356.0 1030.0 L 356.0 1032.0 L 355.0 1033.0 L 355.0 1035.0 L 353.0 1038.0 L 353.0 1040.0 L 352.0 1041.0 L 352.0 1042.0 L 351.0 1043.0 L 351.0 1045.0 L 349.0 1048.0 L 349.0 1050.0 L 348.0 1051.0 L 348.0 1052.0 L 347.0 1053.0 L 347.0 1054.0 L 344.0 1059.0 L 344.0 1061.0 L 343.0 1062.0 L 342.0 1065.0 L 340.0 1067.0 L 340.0 1068.0 L 339.0 1069.0 L 339.0 1070.0 L 338.0 1071.0 L 337.0 1074.0 L 335.0 1076.0 L 334.0 1079.0 L 332.0 1081.0 L 332.0 1082.0 L 330.0 1084.0 L 330.0 1085.0 L 328.0 1087.0 L 328.0 1088.0 L 325.0 1091.0 L 325.0 1092.0 L 319.0 1098.0 L 319.0 1099.0 L 317.0 1101.0 L 316.0 1101.0 L 311.0 1106.0 L 310.0 1106.0 L 308.0 1108.0 L 307.0 1108.0 L 304.0 1110.0 L 302.0 1110.0 L 301.0 1111.0 L 298.0 1111.0 L 297.0 1112.0 L 289.0 1112.0 L 288.0 1111.0 L 286.0 1111.0 L 285.0 1110.0 L 283.0 1110.0 L 281.0 1108.0 L 280.0 1108.0 L 269.0 1097.0 L 269.0 1096.0 L 267.0 1094.0 L 267.0 1093.0 L 263.0 1088.0 L 263.0 1087.0 L 262.0 1086.0 L 262.0 1085.0 L 261.0 1084.0 L 261.0 1083.0 L 258.0 1078.0 L 258.0 1076.0 L 257.0 1075.0 L 257.0 1073.0 L 256.0 1072.0 L 256.0 1068.0 L 255.0 1067.0 L 255.0 1049.0 L 256.0 1048.0 L 256.0 1044.0 L 257.0 1043.0 L 257.0 1040.0 L 258.0 1039.0 L 258.0 1037.0 L 259.0 1036.0 L 259.0 1035.0 L 260.0 1034.0 L 260.0 1032.0 L 261.0 1031.0 L 261.0 1030.0 L 263.0 1028.0 L 264.0 1025.0 L 266.0 1023.0 L 266.0 1022.0 L 271.0 1017.0 L 271.0 1016.0 L 280.0 1007.0 L 281.0 1007.0 L 286.0 1002.0 L 287.0 1002.0 L 290.0 999.0 L 291.0 999.0 L 293.0 997.0 L 294.0 997.0 L 297.0 994.0 L 298.0 994.0 L 299.0 993.0 L 302.0 992.0 L 304.0 990.0 L 305.0 990.0 L 306.0 989.0 L 307.0 989.0 L 308.0 988.0 L 309.0 988.0 L 310.0 987.0 L 311.0 987.0 L 316.0 984.0 L 318.0 984.0 L 323.0 981.0 L 325.0 981.0 L 326.0 980.0 L 328.0 980.0 L 331.0 978.0 L 333.0 978.0 L 334.0 977.0 L 336.0 977.0 L 337.0 976.0 L 339.0 976.0 L 340.0 975.0 L 343.0 975.0 L 344.0 974.0 L 346.0 974.0 L 347.0 973.0 L 350.0 973.0 L 351.0 972.0 L 354.0 972.0 L 355.0 971.0 L 359.0 971.0 L 360.0 970.0 L 364.0 970.0 L 365.0 969.0 Z
    M 878.0 918.0 L 879.0 919.0 L 879.0 921.0 L 878.0 922.0 L 878.0 925.0 L 877.0 926.0 L 876.0 926.0 L 875.0 925.0 L 875.0 922.0 L 876.0 921.0 L 876.0 919.0 L 877.0 918.0 Z
    M 723.0 882.0 L 724.0 882.0 L 726.0 885.0 L 726.0 892.0 L 725.0 893.0 L 724.0 893.0 L 722.0 890.0 L 722.0 883.0 Z
    M 424.0 703.0 L 426.0 703.0 L 427.0 704.0 L 427.0 705.0 L 426.0 706.0 L 426.0 709.0 L 425.0 710.0 L 424.0 710.0 L 423.0 709.0 L 423.0 704.0 Z
    M 470.0 399.0 L 475.0 403.0 L 475.0 407.0 L 474.0 408.0 L 467.0 431.0 L 465.0 434.0 L 465.0 436.0 L 461.0 446.0 L 461.0 449.0 L 460.0 450.0 L 460.0 453.0 L 458.0 457.0 L 457.0 464.0 L 455.0 468.0 L 454.0 475.0 L 452.0 479.0 L 450.0 490.0 L 448.0 494.0 L 447.0 501.0 L 445.0 505.0 L 444.0 512.0 L 442.0 516.0 L 441.0 523.0 L 440.0 524.0 L 439.0 530.0 L 438.0 531.0 L 438.0 536.0 L 437.0 537.0 L 437.0 542.0 L 436.0 543.0 L 436.0 548.0 L 435.0 549.0 L 435.0 554.0 L 434.0 555.0 L 434.0 560.0 L 433.0 561.0 L 433.0 566.0 L 432.0 567.0 L 432.0 572.0 L 431.0 573.0 L 431.0 578.0 L 430.0 579.0 L 430.0 584.0 L 429.0 585.0 L 429.0 590.0 L 428.0 591.0 L 428.0 596.0 L 427.0 597.0 L 427.0 602.0 L 426.0 603.0 L 426.0 608.0 L 425.0 609.0 L 425.0 614.0 L 424.0 615.0 L 424.0 620.0 L 423.0 621.0 L 423.0 626.0 L 422.0 627.0 L 422.0 632.0 L 421.0 633.0 L 421.0 638.0 L 420.0 639.0 L 420.0 644.0 L 419.0 645.0 L 419.0 650.0 L 418.0 651.0 L 418.0 656.0 L 417.0 657.0 L 417.0 662.0 L 416.0 663.0 L 416.0 668.0 L 415.0 669.0 L 415.0 674.0 L 414.0 675.0 L 413.0 685.0 L 409.0 690.0 L 407.0 690.0 L 403.0 692.0 L 392.0 693.0 L 391.0 694.0 L 382.0 694.0 L 381.0 695.0 L 363.0 694.0 L 362.0 693.0 L 358.0 693.0 L 357.0 692.0 L 349.0 690.0 L 341.0 686.0 L 332.0 680.0 L 315.0 664.0 L 303.0 647.0 L 295.0 631.0 L 295.0 629.0 L 293.0 626.0 L 293.0 624.0 L 291.0 620.0 L 291.0 617.0 L 290.0 616.0 L 290.0 613.0 L 288.0 608.0 L 288.0 603.0 L 287.0 602.0 L 287.0 595.0 L 286.0 594.0 L 286.0 566.0 L 287.0 565.0 L 287.0 557.0 L 288.0 556.0 L 288.0 551.0 L 289.0 550.0 L 290.0 541.0 L 291.0 540.0 L 292.0 533.0 L 293.0 532.0 L 298.0 515.0 L 300.0 512.0 L 300.0 510.0 L 314.0 482.0 L 330.0 459.0 L 353.0 435.0 L 354.0 435.0 L 359.0 430.0 L 376.0 418.0 L 395.0 408.0 L 397.0 408.0 L 400.0 406.0 L 402.0 406.0 L 412.0 402.0 L 419.0 401.0 L 420.0 400.0 L 430.0 399.0 L 431.0 398.0 L 441.0 398.0 L 442.0 397.0 L 457.0 397.0 L 458.0 398.0 L 466.0 398.0 L 467.0 399.0 Z
    M 614.0 280.0 L 621.0 289.0 L 631.0 313.0 L 637.0 339.0 L 638.0 355.0 L 639.0 356.0 L 639.0 395.0 L 638.0 396.0 L 636.0 418.0 L 630.0 444.0 L 614.0 487.0 L 596.0 522.0 L 576.0 553.0 L 559.0 575.0 L 539.0 598.0 L 514.0 623.0 L 475.0 656.0 L 455.0 669.0 L 440.0 676.0 L 439.0 672.0 L 441.0 666.0 L 441.0 661.0 L 442.0 660.0 L 442.0 655.0 L 447.0 631.0 L 447.0 626.0 L 452.0 602.0 L 452.0 597.0 L 457.0 573.0 L 465.0 522.0 L 482.0 468.0 L 482.0 465.0 L 486.0 455.0 L 492.0 432.0 L 497.0 419.0 L 501.0 421.0 L 506.0 426.0 L 509.0 432.0 L 516.0 456.0 L 520.0 464.0 L 525.0 469.0 L 529.0 466.0 L 531.0 470.0 L 534.0 462.0 L 535.0 447.0 L 531.0 431.0 L 520.0 414.0 L 505.0 400.0 L 505.0 395.0 L 513.0 373.0 L 524.0 351.0 L 537.0 330.0 L 554.0 308.0 L 570.0 292.0 L 581.0 284.0 L 592.0 279.0 L 605.0 277.0 Z
    M 653.0 76.0 L 652.0 75.0 L 644.0 75.0 L 643.0 76.0 L 639.0 76.0 L 638.0 77.0 L 636.0 77.0 L 635.0 78.0 L 633.0 78.0 L 632.0 79.0 L 631.0 79.0 L 630.0 80.0 L 627.0 81.0 L 622.0 85.0 L 621.0 85.0 L 614.0 92.0 L 614.0 93.0 L 610.0 98.0 L 610.0 99.0 L 607.0 104.0 L 607.0 106.0 L 606.0 107.0 L 606.0 109.0 L 605.0 110.0 L 605.0 113.0 L 604.0 114.0 L 604.0 124.0 L 607.0 124.0 L 608.0 123.0 L 608.0 118.0 L 609.0 117.0 L 609.0 113.0 L 610.0 112.0 L 610.0 109.0 L 611.0 108.0 L 611.0 106.0 L 612.0 105.0 L 613.0 102.0 L 615.0 100.0 L 615.0 99.0 L 617.0 97.0 L 617.0 96.0 L 625.0 88.0 L 626.0 88.0 L 631.0 84.0 L 633.0 84.0 L 636.0 82.0 L 638.0 82.0 L 639.0 81.0 L 641.0 81.0 L 642.0 80.0 L 648.0 80.0 L 649.0 79.0 L 652.0 79.0 L 653.0 78.0 Z
    M 995.0 73.0 L 994.0 72.0 L 983.0 72.0 L 982.0 73.0 L 979.0 73.0 L 978.0 74.0 L 976.0 74.0 L 975.0 75.0 L 974.0 75.0 L 973.0 76.0 L 972.0 76.0 L 971.0 77.0 L 968.0 78.0 L 966.0 80.0 L 965.0 80.0 L 963.0 82.0 L 962.0 82.0 L 956.0 88.0 L 956.0 89.0 L 953.0 92.0 L 952.0 95.0 L 950.0 97.0 L 950.0 98.0 L 949.0 99.0 L 949.0 101.0 L 947.0 104.0 L 947.0 107.0 L 946.0 108.0 L 946.0 112.0 L 945.0 113.0 L 945.0 120.0 L 946.0 121.0 L 948.0 121.0 L 949.0 120.0 L 949.0 119.0 L 950.0 118.0 L 950.0 111.0 L 951.0 110.0 L 951.0 107.0 L 952.0 106.0 L 952.0 104.0 L 953.0 103.0 L 953.0 102.0 L 954.0 101.0 L 954.0 100.0 L 955.0 99.0 L 956.0 96.0 L 959.0 93.0 L 959.0 92.0 L 966.0 85.0 L 967.0 85.0 L 969.0 83.0 L 970.0 83.0 L 972.0 81.0 L 973.0 81.0 L 976.0 79.0 L 978.0 79.0 L 979.0 78.0 L 981.0 78.0 L 982.0 77.0 L 986.0 77.0 L 987.0 76.0 L 993.0 76.0 L 995.0 74.0 Z
    M 837.0 48.0 L 836.0 48.0 L 835.0 47.0 L 829.0 47.0 L 828.0 48.0 L 822.0 48.0 L 821.0 49.0 L 817.0 49.0 L 816.0 50.0 L 814.0 50.0 L 813.0 51.0 L 811.0 51.0 L 810.0 52.0 L 808.0 52.0 L 805.0 54.0 L 803.0 54.0 L 802.0 55.0 L 801.0 55.0 L 799.0 57.0 L 798.0 57.0 L 797.0 58.0 L 796.0 58.0 L 794.0 60.0 L 793.0 60.0 L 790.0 63.0 L 789.0 63.0 L 779.0 73.0 L 779.0 74.0 L 776.0 77.0 L 776.0 78.0 L 774.0 80.0 L 773.0 83.0 L 771.0 85.0 L 771.0 86.0 L 769.0 89.0 L 769.0 91.0 L 768.0 92.0 L 768.0 93.0 L 767.0 94.0 L 767.0 96.0 L 766.0 97.0 L 766.0 100.0 L 765.0 101.0 L 765.0 104.0 L 764.0 105.0 L 764.0 111.0 L 763.0 112.0 L 763.0 119.0 L 764.0 120.0 L 764.0 121.0 L 767.0 122.0 L 770.0 120.0 L 770.0 112.0 L 771.0 111.0 L 771.0 106.0 L 772.0 105.0 L 772.0 102.0 L 773.0 101.0 L 773.0 99.0 L 774.0 98.0 L 774.0 96.0 L 776.0 93.0 L 776.0 91.0 L 777.0 90.0 L 778.0 87.0 L 780.0 85.0 L 780.0 84.0 L 782.0 82.0 L 782.0 81.0 L 786.0 77.0 L 786.0 76.0 L 792.0 70.0 L 793.0 70.0 L 797.0 66.0 L 798.0 66.0 L 800.0 64.0 L 803.0 63.0 L 805.0 61.0 L 806.0 61.0 L 807.0 60.0 L 809.0 60.0 L 810.0 59.0 L 811.0 59.0 L 812.0 58.0 L 814.0 58.0 L 815.0 57.0 L 818.0 57.0 L 819.0 56.0 L 822.0 56.0 L 823.0 55.0 L 829.0 55.0 L 830.0 54.0 L 836.0 54.0 L 838.0 51.0 Z
    M 817.0 23.0 L 790.0 31.0 L 765.0 48.0 L 749.0 68.0 L 736.0 101.0 L 711.0 69.0 L 685.0 55.0 L 650.0 52.0 L 619.0 63.0 L 588.0 97.0 L 581.0 149.0 L 478.0 194.0 L 379.0 255.0 L 286.0 332.0 L 213.0 411.0 L 123.0 546.0 L 64.0 684.0 L 29.0 840.0 L 23.0 984.0 L 44.0 1140.0 L 89.0 1279.0 L 157.0 1408.0 L 254.0 1532.0 L 348.0 1618.0 L 447.0 1685.0 L 516.0 1721.0 L 601.0 1755.0 L 694.0 1784.0 L 765.0 1792.0 L 808.0 1847.0 L 878.0 1894.0 L 941.0 1851.0 L 989.0 1791.0 L 1059.0 1784.0 L 1158.0 1751.0 L 1238.0 1718.0 L 1319.0 1674.0 L 1431.0 1592.0 L 1529.0 1492.0 L 1623.0 1353.0 L 1659.0 1278.0 L 1688.0 1198.0 L 1721.0 1034.0 L 1722.0 873.0 L 1696.0 726.0 L 1646.0 589.0 L 1563.0 448.0 L 1453.0 324.0 L 1374.0 259.0 L 1279.0 199.0 L 1179.0 153.0 L 1080.0 122.0 L 1066.0 85.0 L 1032.0 57.0 L 1011.0 51.0 L 970.0 56.0 L 948.0 69.0 L 924.0 99.0 L 911.0 68.0 L 884.0 39.0 L 849.0 24.0 Z
    M 876.0 1744.0 L 877.0 1744.0 L 879.0 1746.0 L 880.0 1746.0 L 885.0 1751.0 L 886.0 1751.0 L 893.0 1757.0 L 894.0 1757.0 L 899.0 1761.0 L 902.0 1762.0 L 904.0 1764.0 L 905.0 1764.0 L 906.0 1765.0 L 909.0 1766.0 L 911.0 1768.0 L 912.0 1768.0 L 913.0 1769.0 L 914.0 1769.0 L 919.0 1772.0 L 921.0 1772.0 L 926.0 1775.0 L 928.0 1775.0 L 931.0 1777.0 L 933.0 1777.0 L 934.0 1778.0 L 936.0 1778.0 L 937.0 1779.0 L 939.0 1779.0 L 941.0 1781.0 L 941.0 1782.0 L 938.0 1785.0 L 938.0 1786.0 L 935.0 1789.0 L 935.0 1790.0 L 930.0 1795.0 L 930.0 1796.0 L 910.0 1816.0 L 909.0 1816.0 L 904.0 1821.0 L 903.0 1821.0 L 899.0 1825.0 L 898.0 1825.0 L 895.0 1828.0 L 894.0 1828.0 L 890.0 1832.0 L 889.0 1832.0 L 886.0 1835.0 L 885.0 1835.0 L 882.0 1838.0 L 881.0 1838.0 L 879.0 1840.0 L 878.0 1840.0 L 877.0 1841.0 L 875.0 1841.0 L 873.0 1839.0 L 872.0 1839.0 L 869.0 1836.0 L 868.0 1836.0 L 865.0 1833.0 L 864.0 1833.0 L 861.0 1830.0 L 860.0 1830.0 L 856.0 1826.0 L 855.0 1826.0 L 851.0 1822.0 L 850.0 1822.0 L 846.0 1818.0 L 845.0 1818.0 L 835.0 1808.0 L 834.0 1808.0 L 832.0 1806.0 L 832.0 1805.0 L 822.0 1795.0 L 822.0 1794.0 L 818.0 1790.0 L 818.0 1789.0 L 814.0 1785.0 L 814.0 1784.0 L 812.0 1782.0 L 812.0 1780.0 L 813.0 1779.0 L 815.0 1779.0 L 816.0 1778.0 L 818.0 1778.0 L 821.0 1776.0 L 823.0 1776.0 L 826.0 1774.0 L 828.0 1774.0 L 829.0 1773.0 L 830.0 1773.0 L 835.0 1770.0 L 837.0 1770.0 L 838.0 1769.0 L 841.0 1768.0 L 843.0 1766.0 L 844.0 1766.0 L 845.0 1765.0 L 846.0 1765.0 L 847.0 1764.0 L 850.0 1763.0 L 852.0 1761.0 L 853.0 1761.0 L 855.0 1759.0 L 858.0 1758.0 L 861.0 1755.0 L 862.0 1755.0 L 864.0 1753.0 L 865.0 1753.0 L 868.0 1750.0 L 869.0 1750.0 L 874.0 1745.0 L 875.0 1745.0 Z
    M 919.0 1717.0 L 920.0 1716.0 L 930.0 1716.0 L 931.0 1717.0 L 934.0 1717.0 L 935.0 1718.0 L 938.0 1719.0 L 944.0 1725.0 L 944.0 1726.0 L 949.0 1731.0 L 949.0 1732.0 L 948.0 1733.0 L 944.0 1733.0 L 941.0 1731.0 L 939.0 1731.0 L 938.0 1730.0 L 937.0 1730.0 L 936.0 1729.0 L 935.0 1729.0 L 934.0 1728.0 L 933.0 1728.0 L 932.0 1727.0 L 929.0 1726.0 L 927.0 1724.0 L 924.0 1723.0 L 921.0 1720.0 L 920.0 1720.0 L 919.0 1719.0 Z
    M 834.0 1717.0 L 834.0 1718.0 L 832.0 1720.0 L 831.0 1720.0 L 826.0 1724.0 L 823.0 1725.0 L 821.0 1727.0 L 820.0 1727.0 L 819.0 1728.0 L 818.0 1728.0 L 817.0 1729.0 L 816.0 1729.0 L 815.0 1730.0 L 814.0 1730.0 L 809.0 1733.0 L 807.0 1733.0 L 806.0 1734.0 L 805.0 1734.0 L 804.0 1733.0 L 804.0 1731.0 L 806.0 1729.0 L 806.0 1728.0 L 808.0 1726.0 L 808.0 1725.0 L 812.0 1721.0 L 813.0 1721.0 L 815.0 1719.0 L 816.0 1719.0 L 819.0 1717.0 L 822.0 1717.0 L 823.0 1716.0 L 833.0 1716.0 Z
    M 985.0 1737.0 L 985.0 1741.0 L 984.0 1742.0 L 980.0 1742.0 L 979.0 1741.0 L 973.0 1741.0 L 972.0 1740.0 L 967.0 1740.0 L 964.0 1737.0 L 964.0 1735.0 L 963.0 1734.0 L 963.0 1731.0 L 961.0 1728.0 L 961.0 1726.0 L 960.0 1725.0 L 960.0 1724.0 L 959.0 1723.0 L 958.0 1720.0 L 955.0 1717.0 L 955.0 1716.0 L 949.0 1710.0 L 948.0 1710.0 L 943.0 1706.0 L 941.0 1706.0 L 938.0 1704.0 L 936.0 1704.0 L 935.0 1703.0 L 928.0 1703.0 L 927.0 1702.0 L 926.0 1702.0 L 925.0 1703.0 L 917.0 1703.0 L 916.0 1704.0 L 913.0 1704.0 L 912.0 1705.0 L 910.0 1705.0 L 907.0 1707.0 L 905.0 1707.0 L 904.0 1708.0 L 903.0 1708.0 L 902.0 1709.0 L 899.0 1710.0 L 897.0 1712.0 L 894.0 1713.0 L 892.0 1715.0 L 891.0 1715.0 L 889.0 1717.0 L 888.0 1717.0 L 885.0 1720.0 L 884.0 1720.0 L 881.0 1723.0 L 880.0 1723.0 L 876.0 1727.0 L 875.0 1727.0 L 872.0 1730.0 L 871.0 1730.0 L 867.0 1734.0 L 866.0 1734.0 L 863.0 1737.0 L 862.0 1737.0 L 859.0 1740.0 L 858.0 1740.0 L 851.0 1746.0 L 850.0 1746.0 L 848.0 1748.0 L 847.0 1748.0 L 842.0 1752.0 L 839.0 1753.0 L 837.0 1755.0 L 836.0 1755.0 L 835.0 1756.0 L 834.0 1756.0 L 833.0 1757.0 L 832.0 1757.0 L 831.0 1758.0 L 830.0 1758.0 L 829.0 1759.0 L 828.0 1759.0 L 823.0 1762.0 L 821.0 1762.0 L 818.0 1764.0 L 816.0 1764.0 L 815.0 1765.0 L 814.0 1765.0 L 813.0 1766.0 L 811.0 1766.0 L 808.0 1768.0 L 805.0 1768.0 L 803.0 1765.0 L 803.0 1763.0 L 802.0 1762.0 L 802.0 1760.0 L 801.0 1759.0 L 801.0 1755.0 L 800.0 1754.0 L 800.0 1750.0 L 801.0 1749.0 L 802.0 1749.0 L 803.0 1748.0 L 805.0 1748.0 L 808.0 1746.0 L 810.0 1746.0 L 813.0 1744.0 L 815.0 1744.0 L 816.0 1743.0 L 817.0 1743.0 L 818.0 1742.0 L 819.0 1742.0 L 820.0 1741.0 L 821.0 1741.0 L 822.0 1740.0 L 823.0 1740.0 L 824.0 1739.0 L 825.0 1739.0 L 826.0 1738.0 L 827.0 1738.0 L 828.0 1737.0 L 829.0 1737.0 L 830.0 1736.0 L 833.0 1735.0 L 838.0 1731.0 L 841.0 1730.0 L 844.0 1727.0 L 845.0 1727.0 L 847.0 1725.0 L 848.0 1725.0 L 852.0 1721.0 L 853.0 1721.0 L 856.0 1718.0 L 857.0 1718.0 L 860.0 1715.0 L 861.0 1715.0 L 866.0 1710.0 L 867.0 1710.0 L 871.0 1706.0 L 872.0 1706.0 L 875.0 1703.0 L 876.0 1703.0 L 879.0 1700.0 L 880.0 1700.0 L 885.0 1696.0 L 886.0 1696.0 L 887.0 1695.0 L 888.0 1695.0 L 890.0 1693.0 L 891.0 1693.0 L 892.0 1692.0 L 895.0 1691.0 L 897.0 1689.0 L 899.0 1689.0 L 902.0 1687.0 L 904.0 1687.0 L 905.0 1686.0 L 908.0 1686.0 L 909.0 1685.0 L 912.0 1685.0 L 913.0 1684.0 L 917.0 1684.0 L 918.0 1683.0 L 933.0 1683.0 L 934.0 1684.0 L 938.0 1684.0 L 939.0 1685.0 L 941.0 1685.0 L 942.0 1686.0 L 944.0 1686.0 L 945.0 1687.0 L 947.0 1687.0 L 948.0 1688.0 L 949.0 1688.0 L 950.0 1689.0 L 951.0 1689.0 L 952.0 1690.0 L 955.0 1691.0 L 957.0 1693.0 L 958.0 1693.0 L 961.0 1696.0 L 962.0 1696.0 L 971.0 1705.0 L 971.0 1706.0 L 973.0 1708.0 L 973.0 1709.0 L 977.0 1714.0 L 977.0 1715.0 L 979.0 1718.0 L 979.0 1720.0 L 981.0 1723.0 L 981.0 1725.0 L 982.0 1726.0 L 982.0 1728.0 L 983.0 1729.0 L 983.0 1732.0 L 984.0 1733.0 L 984.0 1736.0 Z
    M 809.0 1686.0 L 816.0 1685.0 L 817.0 1684.0 L 823.0 1684.0 L 824.0 1683.0 L 839.0 1684.0 L 840.0 1685.0 L 844.0 1685.0 L 845.0 1686.0 L 850.0 1687.0 L 853.0 1689.0 L 855.0 1689.0 L 861.0 1692.0 L 863.0 1694.0 L 863.0 1695.0 L 859.0 1699.0 L 858.0 1699.0 L 849.0 1707.0 L 846.0 1707.0 L 835.0 1703.0 L 820.0 1703.0 L 819.0 1704.0 L 816.0 1704.0 L 813.0 1706.0 L 811.0 1706.0 L 809.0 1708.0 L 806.0 1709.0 L 796.0 1719.0 L 790.0 1730.0 L 789.0 1736.0 L 788.0 1737.0 L 788.0 1741.0 L 787.0 1742.0 L 787.0 1757.0 L 788.0 1758.0 L 788.0 1762.0 L 789.0 1763.0 L 789.0 1766.0 L 790.0 1767.0 L 791.0 1772.0 L 796.0 1782.0 L 798.0 1784.0 L 803.0 1793.0 L 816.0 1808.0 L 816.0 1809.0 L 841.0 1832.0 L 872.0 1855.0 L 876.0 1857.0 L 881.0 1855.0 L 913.0 1831.0 L 926.0 1819.0 L 927.0 1819.0 L 938.0 1808.0 L 938.0 1807.0 L 944.0 1801.0 L 956.0 1785.0 L 971.0 1786.0 L 974.0 1788.0 L 974.0 1790.0 L 971.0 1796.0 L 963.0 1808.0 L 950.0 1822.0 L 950.0 1823.0 L 938.0 1835.0 L 937.0 1835.0 L 928.0 1844.0 L 927.0 1844.0 L 922.0 1849.0 L 921.0 1849.0 L 909.0 1859.0 L 890.0 1872.0 L 887.0 1873.0 L 878.0 1879.0 L 875.0 1879.0 L 873.0 1877.0 L 868.0 1875.0 L 848.0 1862.0 L 831.0 1849.0 L 816.0 1835.0 L 815.0 1835.0 L 790.0 1808.0 L 781.0 1794.0 L 774.0 1779.0 L 774.0 1777.0 L 770.0 1767.0 L 769.0 1757.0 L 768.0 1756.0 L 768.0 1740.0 L 769.0 1739.0 L 769.0 1734.0 L 770.0 1733.0 L 772.0 1723.0 L 775.0 1718.0 L 775.0 1716.0 L 784.0 1703.0 L 794.0 1694.0 L 804.0 1688.0 L 806.0 1688.0 Z
    M 582.0 161.0 L 590.0 174.0 L 532.0 197.0 L 464.0 232.0 L 400.0 273.0 L 335.0 324.0 L 253.0 406.0 L 173.0 515.0 L 111.0 638.0 L 72.0 763.0 L 53.0 901.0 L 56.0 1028.0 L 79.0 1155.0 L 125.0 1284.0 L 157.0 1347.0 L 199.0 1414.0 L 279.0 1512.0 L 379.0 1601.0 L 485.0 1669.0 L 612.0 1724.0 L 697.0 1750.0 L 754.0 1757.0 L 758.0 1775.0 L 729.0 1775.0 L 649.0 1757.0 L 517.0 1708.0 L 393.0 1636.0 L 325.0 1583.0 L 275.0 1536.0 L 188.0 1432.0 L 147.0 1368.0 L 113.0 1303.0 L 66.0 1177.0 L 39.0 1036.0 L 36.0 896.0 L 56.0 758.0 L 101.0 620.0 L 164.0 500.0 L 248.0 389.0 L 348.0 294.0 L 456.0 220.0 Z
    M 1078.0 161.0 L 1221.0 213.0 L 1290.0 250.0 L 1361.0 298.0 L 1421.0 348.0 L 1487.0 416.0 L 1577.0 543.0 L 1640.0 682.0 L 1664.0 767.0 L 1677.0 841.0 L 1683.0 914.0 L 1681.0 1010.0 L 1653.0 1166.0 L 1628.0 1240.0 L 1593.0 1317.0 L 1515.0 1439.0 L 1408.0 1553.0 L 1341.0 1606.0 L 1270.0 1651.0 L 1142.0 1709.0 L 1016.0 1742.0 L 998.0 1741.0 L 991.0 1712.0 L 972.0 1687.0 L 931.0 1669.0 L 901.0 1673.0 L 878.0 1686.0 L 840.0 1670.0 L 802.0 1674.0 L 769.0 1700.0 L 754.0 1742.0 L 726.0 1741.0 L 653.0 1724.0 L 559.0 1691.0 L 496.0 1661.0 L 377.0 1584.0 L 263.0 1476.0 L 214.0 1414.0 L 167.0 1340.0 L 133.0 1272.0 L 100.0 1184.0 L 69.0 1035.0 L 66.0 888.0 L 92.0 733.0 L 140.0 602.0 L 180.0 527.0 L 229.0 455.0 L 286.0 388.0 L 340.0 336.0 L 403.0 286.0 L 473.0 241.0 L 596.0 184.0 L 645.0 211.0 L 690.0 207.0 L 723.0 183.0 L 740.0 149.0 L 770.0 190.0 L 813.0 210.0 L 847.0 210.0 L 877.0 199.0 L 903.0 177.0 L 920.0 148.0 L 946.0 191.0 L 991.0 211.0 L 1015.0 210.0 L 1041.0 200.0 Z
    M 1083.0 135.0 L 1155.0 157.0 L 1228.0 187.0 L 1350.0 257.0 L 1451.0 339.0 L 1550.0 451.0 L 1594.0 517.0 L 1634.0 592.0 L 1680.0 714.0 L 1707.0 846.0 L 1712.0 993.0 L 1694.0 1127.0 L 1652.0 1263.0 L 1583.0 1397.0 L 1497.0 1510.0 L 1391.0 1609.0 L 1334.0 1650.0 L 1259.0 1694.0 L 1129.0 1748.0 L 1045.0 1770.0 L 998.0 1776.0 L 932.0 1763.0 L 888.0 1734.0 L 903.0 1724.0 L 942.0 1746.0 L 993.0 1758.0 L 1060.0 1749.0 L 1169.0 1712.0 L 1257.0 1672.0 L 1341.0 1621.0 L 1413.0 1565.0 L 1476.0 1504.0 L 1550.0 1412.0 L 1617.0 1296.0 L 1663.0 1175.0 L 1689.0 1050.0 L 1689.0 839.0 L 1676.0 765.0 L 1637.0 639.0 L 1569.0 506.0 L 1484.0 394.0 L 1376.0 294.0 L 1302.0 243.0 L 1222.0 200.0 L 1149.0 170.0 L 1079.0 149.0 Z
    M 652.0 64.0 L 670.0 64.0 L 671.0 65.0 L 675.0 65.0 L 676.0 66.0 L 679.0 66.0 L 680.0 67.0 L 682.0 67.0 L 683.0 68.0 L 685.0 68.0 L 688.0 70.0 L 690.0 70.0 L 691.0 71.0 L 692.0 71.0 L 694.0 73.0 L 697.0 74.0 L 699.0 76.0 L 700.0 76.0 L 703.0 79.0 L 704.0 79.0 L 713.0 88.0 L 713.0 89.0 L 716.0 92.0 L 716.0 93.0 L 720.0 98.0 L 720.0 99.0 L 721.0 100.0 L 721.0 101.0 L 724.0 106.0 L 724.0 108.0 L 725.0 109.0 L 725.0 111.0 L 726.0 112.0 L 726.0 114.0 L 727.0 115.0 L 727.0 119.0 L 728.0 120.0 L 728.0 126.0 L 729.0 127.0 L 729.0 137.0 L 728.0 138.0 L 728.0 144.0 L 727.0 145.0 L 727.0 149.0 L 726.0 150.0 L 726.0 152.0 L 725.0 153.0 L 725.0 155.0 L 724.0 156.0 L 724.0 158.0 L 723.0 159.0 L 723.0 160.0 L 722.0 161.0 L 722.0 162.0 L 721.0 163.0 L 720.0 166.0 L 718.0 168.0 L 718.0 169.0 L 716.0 171.0 L 716.0 172.0 L 711.0 177.0 L 711.0 178.0 L 707.0 182.0 L 706.0 182.0 L 701.0 187.0 L 700.0 187.0 L 695.0 191.0 L 694.0 191.0 L 693.0 192.0 L 692.0 192.0 L 687.0 195.0 L 685.0 195.0 L 684.0 196.0 L 682.0 196.0 L 681.0 197.0 L 679.0 197.0 L 678.0 198.0 L 675.0 198.0 L 674.0 199.0 L 669.0 199.0 L 668.0 200.0 L 654.0 200.0 L 653.0 199.0 L 647.0 199.0 L 646.0 198.0 L 643.0 198.0 L 642.0 197.0 L 640.0 197.0 L 639.0 196.0 L 637.0 196.0 L 634.0 194.0 L 632.0 194.0 L 631.0 193.0 L 628.0 192.0 L 626.0 190.0 L 625.0 190.0 L 620.0 186.0 L 619.0 186.0 L 607.0 174.0 L 607.0 173.0 L 604.0 170.0 L 604.0 169.0 L 602.0 167.0 L 602.0 166.0 L 601.0 165.0 L 601.0 164.0 L 600.0 163.0 L 600.0 162.0 L 597.0 157.0 L 597.0 155.0 L 596.0 154.0 L 596.0 152.0 L 595.0 151.0 L 595.0 148.0 L 594.0 147.0 L 594.0 143.0 L 593.0 142.0 L 593.0 122.0 L 594.0 121.0 L 594.0 117.0 L 595.0 116.0 L 595.0 113.0 L 596.0 112.0 L 596.0 110.0 L 597.0 109.0 L 597.0 107.0 L 598.0 106.0 L 598.0 105.0 L 599.0 104.0 L 599.0 103.0 L 600.0 102.0 L 600.0 101.0 L 601.0 100.0 L 602.0 97.0 L 604.0 95.0 L 604.0 94.0 L 606.0 92.0 L 606.0 91.0 L 612.0 85.0 L 612.0 84.0 L 613.0 83.0 L 614.0 83.0 L 620.0 77.0 L 621.0 77.0 L 626.0 73.0 L 627.0 73.0 L 628.0 72.0 L 629.0 72.0 L 630.0 71.0 L 631.0 71.0 L 636.0 68.0 L 638.0 68.0 L 639.0 67.0 L 641.0 67.0 L 642.0 66.0 L 645.0 66.0 L 646.0 65.0 L 651.0 65.0 Z
    M 991.0 63.0 L 1009.0 63.0 L 1010.0 64.0 L 1014.0 64.0 L 1015.0 65.0 L 1018.0 65.0 L 1019.0 66.0 L 1021.0 66.0 L 1022.0 67.0 L 1024.0 67.0 L 1027.0 69.0 L 1029.0 69.0 L 1030.0 70.0 L 1031.0 70.0 L 1033.0 72.0 L 1036.0 73.0 L 1038.0 75.0 L 1039.0 75.0 L 1042.0 78.0 L 1043.0 78.0 L 1052.0 87.0 L 1052.0 88.0 L 1056.0 92.0 L 1057.0 95.0 L 1059.0 97.0 L 1059.0 98.0 L 1060.0 99.0 L 1060.0 100.0 L 1063.0 105.0 L 1063.0 107.0 L 1064.0 108.0 L 1064.0 110.0 L 1065.0 111.0 L 1065.0 113.0 L 1066.0 114.0 L 1066.0 117.0 L 1067.0 118.0 L 1067.0 125.0 L 1068.0 126.0 L 1068.0 136.0 L 1067.0 137.0 L 1067.0 143.0 L 1066.0 144.0 L 1066.0 148.0 L 1065.0 149.0 L 1065.0 151.0 L 1064.0 152.0 L 1064.0 154.0 L 1063.0 155.0 L 1063.0 157.0 L 1062.0 158.0 L 1062.0 159.0 L 1061.0 160.0 L 1061.0 161.0 L 1060.0 162.0 L 1059.0 165.0 L 1057.0 167.0 L 1057.0 168.0 L 1055.0 170.0 L 1055.0 171.0 L 1050.0 176.0 L 1050.0 177.0 L 1046.0 181.0 L 1045.0 181.0 L 1040.0 186.0 L 1039.0 186.0 L 1034.0 190.0 L 1033.0 190.0 L 1032.0 191.0 L 1031.0 191.0 L 1026.0 194.0 L 1024.0 194.0 L 1023.0 195.0 L 1021.0 195.0 L 1020.0 196.0 L 1018.0 196.0 L 1017.0 197.0 L 1014.0 197.0 L 1013.0 198.0 L 1008.0 198.0 L 1007.0 199.0 L 993.0 199.0 L 992.0 198.0 L 986.0 198.0 L 985.0 197.0 L 982.0 197.0 L 981.0 196.0 L 979.0 196.0 L 978.0 195.0 L 976.0 195.0 L 973.0 193.0 L 971.0 193.0 L 970.0 192.0 L 969.0 192.0 L 967.0 190.0 L 964.0 189.0 L 962.0 187.0 L 961.0 187.0 L 958.0 184.0 L 957.0 184.0 L 946.0 173.0 L 946.0 172.0 L 943.0 169.0 L 943.0 168.0 L 941.0 166.0 L 941.0 165.0 L 940.0 164.0 L 940.0 163.0 L 939.0 162.0 L 939.0 161.0 L 936.0 156.0 L 936.0 154.0 L 935.0 153.0 L 935.0 151.0 L 934.0 150.0 L 934.0 147.0 L 933.0 146.0 L 933.0 142.0 L 932.0 141.0 L 932.0 121.0 L 933.0 120.0 L 933.0 116.0 L 934.0 115.0 L 934.0 112.0 L 935.0 111.0 L 935.0 109.0 L 936.0 108.0 L 936.0 106.0 L 937.0 105.0 L 937.0 104.0 L 938.0 103.0 L 938.0 102.0 L 939.0 101.0 L 939.0 100.0 L 940.0 99.0 L 941.0 96.0 L 943.0 94.0 L 943.0 93.0 L 945.0 91.0 L 945.0 90.0 L 951.0 84.0 L 951.0 83.0 L 952.0 82.0 L 953.0 82.0 L 959.0 76.0 L 960.0 76.0 L 965.0 72.0 L 966.0 72.0 L 967.0 71.0 L 968.0 71.0 L 969.0 70.0 L 970.0 70.0 L 975.0 67.0 L 977.0 67.0 L 978.0 66.0 L 980.0 66.0 L 981.0 65.0 L 984.0 65.0 L 985.0 64.0 L 990.0 64.0 Z
    M 813.0 36.0 L 818.0 36.0 L 819.0 35.0 L 841.0 35.0 L 842.0 36.0 L 847.0 36.0 L 848.0 37.0 L 851.0 37.0 L 852.0 38.0 L 854.0 38.0 L 855.0 39.0 L 857.0 39.0 L 858.0 40.0 L 860.0 40.0 L 861.0 41.0 L 862.0 41.0 L 863.0 42.0 L 864.0 42.0 L 865.0 43.0 L 866.0 43.0 L 867.0 44.0 L 872.0 46.0 L 874.0 48.0 L 875.0 48.0 L 877.0 50.0 L 878.0 50.0 L 881.0 53.0 L 882.0 53.0 L 894.0 65.0 L 894.0 66.0 L 897.0 69.0 L 897.0 70.0 L 901.0 75.0 L 901.0 76.0 L 902.0 77.0 L 902.0 78.0 L 903.0 79.0 L 903.0 80.0 L 907.0 87.0 L 907.0 89.0 L 908.0 90.0 L 908.0 92.0 L 909.0 93.0 L 909.0 96.0 L 910.0 97.0 L 910.0 100.0 L 911.0 101.0 L 911.0 106.0 L 912.0 107.0 L 912.0 126.0 L 911.0 127.0 L 911.0 133.0 L 910.0 134.0 L 910.0 137.0 L 909.0 138.0 L 909.0 140.0 L 908.0 141.0 L 908.0 143.0 L 907.0 144.0 L 907.0 146.0 L 906.0 147.0 L 906.0 149.0 L 905.0 150.0 L 905.0 151.0 L 904.0 152.0 L 902.0 157.0 L 900.0 159.0 L 899.0 162.0 L 892.0 170.0 L 892.0 171.0 L 884.0 179.0 L 883.0 179.0 L 879.0 183.0 L 878.0 183.0 L 876.0 185.0 L 875.0 185.0 L 870.0 189.0 L 869.0 189.0 L 864.0 192.0 L 862.0 192.0 L 859.0 194.0 L 857.0 194.0 L 856.0 195.0 L 854.0 195.0 L 853.0 196.0 L 850.0 196.0 L 849.0 197.0 L 846.0 197.0 L 845.0 198.0 L 839.0 198.0 L 838.0 199.0 L 822.0 199.0 L 821.0 198.0 L 815.0 198.0 L 814.0 197.0 L 811.0 197.0 L 810.0 196.0 L 807.0 196.0 L 806.0 195.0 L 804.0 195.0 L 803.0 194.0 L 801.0 194.0 L 798.0 192.0 L 796.0 192.0 L 795.0 191.0 L 792.0 190.0 L 790.0 188.0 L 787.0 187.0 L 782.0 183.0 L 781.0 183.0 L 776.0 178.0 L 775.0 178.0 L 768.0 171.0 L 768.0 170.0 L 764.0 166.0 L 764.0 165.0 L 762.0 163.0 L 762.0 162.0 L 758.0 157.0 L 758.0 156.0 L 754.0 149.0 L 754.0 147.0 L 753.0 146.0 L 753.0 144.0 L 752.0 143.0 L 752.0 141.0 L 751.0 140.0 L 751.0 138.0 L 750.0 137.0 L 750.0 133.0 L 749.0 132.0 L 749.0 127.0 L 748.0 126.0 L 748.0 108.0 L 749.0 107.0 L 749.0 101.0 L 750.0 100.0 L 750.0 97.0 L 751.0 96.0 L 751.0 93.0 L 752.0 92.0 L 752.0 90.0 L 754.0 87.0 L 754.0 85.0 L 755.0 84.0 L 755.0 83.0 L 756.0 82.0 L 756.0 81.0 L 757.0 80.0 L 759.0 75.0 L 761.0 73.0 L 761.0 72.0 L 763.0 70.0 L 763.0 69.0 L 766.0 66.0 L 766.0 65.0 L 778.0 53.0 L 779.0 53.0 L 782.0 50.0 L 783.0 50.0 L 788.0 46.0 L 789.0 46.0 L 790.0 45.0 L 791.0 45.0 L 792.0 44.0 L 793.0 44.0 L 800.0 40.0 L 802.0 40.0 L 803.0 39.0 L 805.0 39.0 L 806.0 38.0 L 808.0 38.0 L 809.0 37.0 L 812.0 37.0 Z"
        fill="#000000"
        fill-rule="evenodd"
        clip-rule="evenodd"/>
</svg>
