<?xml version="1.0" encoding="UTF-8"?>
<svg xmlns="http://www.w3.org/2000/svg" viewBox="0 0 1000 1100" role="img" aria-label="Loops by Lisa handmade with heart logo">
  <title>Loops by Lisa handmade with heart logo</title>
  <defs><path id="taglineArc" d="M245 730 A330 330 0 0 0 755 730"/></defs>
  <rect width="1000" height="1100" fill="none"/>
  <circle cx="500" cy="530" r="420" fill="none" stroke="#111" stroke-width="18"/>
  <circle cx="500" cy="530" r="394" fill="none" stroke="#111" stroke-width="8"/>
  <circle cx="410" cy="105" r="47" fill="#fff" stroke="#111" stroke-width="10"/>
  <circle cx="500" cy="88" r="58" fill="#fff" stroke="#111" stroke-width="10"/>
  <circle cx="590" cy="105" r="47" fill="#fff" stroke="#111" stroke-width="10"/>
  <path d="M382 85 C372 96 367 108 366 121" fill="none" stroke="#111" stroke-width="4" stroke-linecap="round"/>
  <path d="M468 62 C454 74 448 90 447 107" fill="none" stroke="#111" stroke-width="4" stroke-linecap="round"/>
  <path d="M562 85 C552 96 547 108 546 121" fill="none" stroke="#111" stroke-width="4" stroke-linecap="round"/>
  <text x="180" y="520" fill="#111" font-family="Brush Script MT, Segoe Script, cursive" font-size="260" font-style="italic">Loops</text>
  <text x="365" y="650" fill="#111" font-family="Montserrat, Arial, sans-serif" font-size="76" font-weight="400" letter-spacing="6">BY LISA</text>
  <line x1="320" y1="705" x2="680" y2="705" stroke="#111" stroke-width="10"/>
  <text fill="#111" font-family="Montserrat, Arial, sans-serif" font-size="44" letter-spacing="8"><textPath href="#taglineArc" startOffset="50%" text-anchor="middle">HANDMADE WITH HEART</textPath></text>
  <g transform="translate(500 950)">
    <path d="M0 70 C-70 20 -115 -18 -96 -58 C-82 -91 -42 -90 -5 -54 C31 -90 72 -91 88 -58 C108 -18 58 20 0 70 Z" fill="none" stroke="#111" stroke-width="12" stroke-linejoin="round"/>
    <path d="M-75 -20 C-42 -48 -14 -48 5 -27 C24 -48 53 -48 78 -20" fill="none" stroke="#111" stroke-width="10" stroke-linecap="round"/>
  </g>
</svg>
